G04 #@! TF.FileFunction,Drawing*
%FSLAX46Y46*%
G04 Gerber Fmt 4.6, Leading zero omitted, Abs format (unit mm)*
G04 Created by KiCad (PCBNEW 4.0.7) date 01/21/18 18:22:41*
%MOMM*%
%LPD*%
G01*
G04 APERTURE LIST*
%ADD10C,0.100000*%
%ADD11C,0.050000*%
G04 APERTURE END LIST*
D10*
D11*
X74307000Y-52853000D02*
G75*
G03X75307000Y-53853000I1000000J0D01*
G01*
X79307000Y-54853000D02*
G75*
G03X78307000Y-53853000I-1000000J0D01*
G01*
X78307000Y-70853000D02*
G75*
G03X79307000Y-69853000I0J1000000D01*
G01*
X75307000Y-70853000D02*
G75*
G03X74307000Y-71853000I0J-1000000D01*
G01*
X118307000Y-86353000D02*
G75*
G03X120307000Y-86353000I1000000J0D01*
G01*
X77307000Y-33853000D02*
G75*
G03X74307000Y-36853000I0J-3000000D01*
G01*
X74307000Y-87353000D02*
G75*
G03X77307000Y-90353000I3000000J0D01*
G01*
X136307000Y-90353000D02*
G75*
G03X139307000Y-87353000I0J3000000D01*
G01*
X120307000Y-71353000D02*
G75*
G03X118307000Y-71353000I-1000000J0D01*
G01*
X139307000Y-36853000D02*
G75*
G03X136307000Y-33853000I-3000000J0D01*
G01*
X120307000Y-71353000D02*
X120307000Y-86353000D01*
X118307000Y-71353000D02*
X118307000Y-86353000D01*
X74307000Y-71853000D02*
X74307000Y-87353000D01*
X74307000Y-36853000D02*
X74307000Y-52853000D01*
X75307000Y-70853000D02*
X78307000Y-70853000D01*
X75307000Y-53853000D02*
X78307000Y-53853000D01*
X79307000Y-54853000D02*
X79307000Y-69853000D01*
X77307000Y-90353000D02*
X136307000Y-90353000D01*
X139307000Y-36853000D02*
X139307000Y-87353000D01*
X77307000Y-33853000D02*
X136307000Y-33853000D01*
M02*
