G04 #@! TF.FileFunction,Copper,L2,Bot,Signal*
%FSLAX46Y46*%
G04 Gerber Fmt 4.6, Leading zero omitted, Abs format (unit mm)*
G04 Created by KiCad (PCBNEW 4.0.7) date 01/27/18 12:09:31*
%MOMM*%
%LPD*%
G01*
G04 APERTURE LIST*
%ADD10C,0.100000*%
%ADD11R,1.700000X1.700000*%
%ADD12O,1.700000X1.700000*%
%ADD13C,0.600000*%
%ADD14C,2.200000*%
%ADD15C,2.000000*%
%ADD16R,1.727200X1.727200*%
%ADD17C,1.727200*%
%ADD18C,0.250000*%
%ADD19C,0.400000*%
%ADD20C,0.254000*%
G04 APERTURE END LIST*
D10*
D11*
X82169000Y-66421000D03*
D12*
X82169000Y-63881000D03*
X82169000Y-61341000D03*
X82169000Y-58801000D03*
D13*
X118237000Y-63373000D03*
X92583000Y-43561000D03*
X89662000Y-83566000D03*
X88265000Y-53467000D03*
X87122000Y-59817000D03*
X85852000Y-63246000D03*
X101092000Y-81661000D03*
X81788000Y-54483000D03*
X88392000Y-48387000D03*
X105791000Y-82296000D03*
X84074000Y-50419000D03*
X82423000Y-46609000D03*
X84201000Y-46990000D03*
X77470000Y-52197000D03*
X84201000Y-43815000D03*
X123825000Y-77597000D03*
X101332500Y-55084500D03*
X100082500Y-55084500D03*
X98832500Y-55084500D03*
X97582500Y-55084500D03*
X101332500Y-53834500D03*
X100082500Y-53834500D03*
X98832500Y-53834500D03*
X97582500Y-53834500D03*
X101332500Y-52584500D03*
X100082500Y-52584500D03*
X98832500Y-52584500D03*
X97582500Y-52584500D03*
X101332500Y-51334500D03*
X100082500Y-51334500D03*
X98832500Y-51334500D03*
X97582500Y-51334500D03*
X135636000Y-59055000D03*
X127000000Y-57912000D03*
X133350000Y-40640000D03*
X116078000Y-35814000D03*
X93472000Y-61722000D03*
X112014000Y-60706000D03*
X133604000Y-77724000D03*
X113538000Y-47752000D03*
X108204000Y-40386000D03*
X87630000Y-46355000D03*
X105410000Y-43561000D03*
X111760000Y-43307000D03*
X88392000Y-49784000D03*
X93472000Y-50673000D03*
X104902000Y-58166000D03*
X100076000Y-58166000D03*
X126238000Y-51943000D03*
X116586000Y-53340000D03*
X114808000Y-57912000D03*
X101600000Y-40767000D03*
X103124000Y-49022000D03*
X108839000Y-49276000D03*
X103124000Y-61468000D03*
X108204000Y-52578000D03*
X112014000Y-62484000D03*
X128778000Y-40894000D03*
X124968000Y-40894000D03*
X124714000Y-45720000D03*
X120650000Y-56007000D03*
X116586000Y-54610000D03*
X116840000Y-51308000D03*
X121031000Y-50673000D03*
D11*
X132080000Y-60452000D03*
D12*
X132080000Y-62992000D03*
X132080000Y-65532000D03*
X132080000Y-68072000D03*
D14*
X77317600Y-49174400D03*
X77317600Y-44094400D03*
X82397600Y-44094400D03*
X82397600Y-49174400D03*
D15*
X79857600Y-46634400D03*
D11*
X115062000Y-45593000D03*
D12*
X117602000Y-45593000D03*
X120142000Y-45593000D03*
X122682000Y-45593000D03*
D13*
X128270000Y-51308000D03*
D14*
X76708000Y-81661000D03*
X76708000Y-76581000D03*
X81788000Y-76581000D03*
X81788000Y-81661000D03*
D15*
X79248000Y-79121000D03*
D16*
X82677000Y-38873000D03*
D17*
X82677000Y-36333000D03*
X85217000Y-38873000D03*
X85217000Y-36333000D03*
X87757000Y-38873000D03*
X87757000Y-36333000D03*
X90297000Y-38873000D03*
X90297000Y-36333000D03*
X92837000Y-38873000D03*
X92837000Y-36333000D03*
X120777000Y-38873000D03*
X120777000Y-36333000D03*
X123317000Y-38873000D03*
X123317000Y-36333000D03*
X125857000Y-38873000D03*
X125857000Y-36333000D03*
X128397000Y-38873000D03*
X128397000Y-36333000D03*
X130937000Y-38873000D03*
X130937000Y-36333000D03*
D13*
X85852000Y-80772000D03*
X123952000Y-69596000D03*
X99060000Y-73660000D03*
X100330000Y-73660000D03*
X101600000Y-73660000D03*
X99060000Y-74930000D03*
X100330000Y-74930000D03*
X101600000Y-74930000D03*
X99060000Y-76200000D03*
X100330000Y-76200000D03*
X101600000Y-76200000D03*
X84455000Y-71120000D03*
X86741000Y-68453000D03*
X76454000Y-72390000D03*
X83439000Y-69723000D03*
X85598000Y-69723000D03*
X85725000Y-78359000D03*
X95758000Y-43434000D03*
X97028000Y-48514000D03*
X128778000Y-44704000D03*
X119126000Y-56134000D03*
X106172000Y-45720000D03*
X106934000Y-65278000D03*
X119126000Y-43942000D03*
X118110000Y-47244000D03*
X110490000Y-46736000D03*
X112776000Y-54356000D03*
X111125000Y-76581000D03*
X109855000Y-55245000D03*
X109880400Y-53771800D03*
X111887000Y-74803000D03*
X110744000Y-53848000D03*
X108712000Y-53594000D03*
X110236000Y-75438000D03*
X104140000Y-56896000D03*
X104140000Y-53848000D03*
X106172000Y-59436000D03*
X108458000Y-78740000D03*
X119679999Y-50500001D03*
X116586000Y-56134000D03*
X127508000Y-46228000D03*
X105791000Y-48006000D03*
X106680000Y-73660000D03*
X99060000Y-48260000D03*
X92456000Y-72136000D03*
X93726000Y-77470000D03*
X99568000Y-66802000D03*
X102108000Y-67818000D03*
X93726000Y-59690000D03*
X101219000Y-48006000D03*
X89408000Y-49276000D03*
X104140000Y-52832000D03*
X119380000Y-59182000D03*
X112776000Y-58674000D03*
X124460000Y-49784000D03*
X126238000Y-46228000D03*
X95758000Y-68453000D03*
X91440000Y-65786000D03*
X117602000Y-67818000D03*
X124460000Y-55118000D03*
X118364000Y-68834000D03*
X124714000Y-56642000D03*
X113284000Y-76454000D03*
X121666000Y-54610000D03*
D18*
X97028000Y-48514000D02*
X95758000Y-47244000D01*
X95758000Y-47244000D02*
X95758000Y-43434000D01*
X119126000Y-56134000D02*
X119126000Y-56043002D01*
X119126000Y-56043002D02*
X128270000Y-46899002D01*
X128270000Y-46899002D02*
X128270000Y-45212000D01*
X128270000Y-45212000D02*
X128778000Y-44704000D01*
X106934000Y-48641000D02*
X106934000Y-46482000D01*
X106934000Y-65278000D02*
X106934000Y-48768000D01*
X106934000Y-48768000D02*
X106934000Y-48641000D01*
X106934000Y-46482000D02*
X106172000Y-45720000D01*
X119126000Y-43942000D02*
X116713000Y-43942000D01*
X109601000Y-36830000D02*
X93334000Y-36830000D01*
X116713000Y-43942000D02*
X109601000Y-36830000D01*
X93334000Y-36830000D02*
X92837000Y-36333000D01*
X119126000Y-43942000D02*
X118999000Y-43942000D01*
X117810001Y-46944001D02*
X117213999Y-46944001D01*
X118110000Y-47244000D02*
X117810001Y-46944001D01*
X116237001Y-45967003D02*
X116237001Y-44482999D01*
X117213999Y-46944001D02*
X116237001Y-45967003D01*
X116237001Y-44482999D02*
X111847124Y-40093122D01*
X109346002Y-37592000D02*
X111847124Y-40093122D01*
X91440000Y-37465000D02*
X91567000Y-37592000D01*
X91440000Y-37465000D02*
X90308000Y-36333000D01*
X91567000Y-37592000D02*
X109346002Y-37592000D01*
X90297000Y-36333000D02*
X90308000Y-36333000D01*
X112776000Y-54356000D02*
X112776000Y-49022000D01*
X112776000Y-49022000D02*
X110490000Y-46736000D01*
X110998000Y-76454000D02*
X111125000Y-76581000D01*
X109855000Y-71628000D02*
X109855000Y-55245000D01*
X110998000Y-72771000D02*
X109855000Y-71628000D01*
X110998000Y-75565000D02*
X110998000Y-72771000D01*
X110998000Y-75565000D02*
X110998000Y-76454000D01*
X109880400Y-53771800D02*
X109880400Y-55219600D01*
X109880400Y-55219600D02*
X109855000Y-55245000D01*
X110744000Y-71120000D02*
X110744000Y-53848000D01*
X111887000Y-72263000D02*
X110744000Y-71120000D01*
X111887000Y-74803000D02*
X111887000Y-72263000D01*
X108712000Y-71882000D02*
X108712000Y-53594000D01*
X110236000Y-73406000D02*
X108712000Y-71882000D01*
X110236000Y-75438000D02*
X110236000Y-73406000D01*
X104140000Y-53848000D02*
X104140000Y-56896000D01*
X105918000Y-59690000D02*
X106172000Y-59436000D01*
X105918000Y-70358000D02*
X105918000Y-59690000D01*
X109220000Y-73660000D02*
X105918000Y-70358000D01*
X109220000Y-77978000D02*
X109220000Y-73660000D01*
X108458000Y-78740000D02*
X109220000Y-77978000D01*
X120142000Y-45593000D02*
X120142000Y-47080998D01*
X119679999Y-50500001D02*
X120142000Y-50038000D01*
X120142000Y-50038000D02*
X120142000Y-47080998D01*
D19*
X90043000Y-77724000D02*
X101346000Y-89027000D01*
X120396000Y-42799000D02*
X117094000Y-42799000D01*
X132080000Y-45593000D02*
X129286000Y-42799000D01*
X129286000Y-42799000D02*
X120396000Y-42799000D01*
X132080000Y-60452000D02*
X132080000Y-45593000D01*
X85217000Y-35433000D02*
X85725000Y-34925000D01*
X85725000Y-34925000D02*
X93472000Y-34925000D01*
X85217000Y-35433000D02*
X85217000Y-36333000D01*
X94615000Y-36068000D02*
X93472000Y-34925000D01*
X110363000Y-36068000D02*
X94615000Y-36068000D01*
X117094000Y-42799000D02*
X110363000Y-36068000D01*
X82169000Y-66421000D02*
X88138000Y-66421000D01*
X130175000Y-60452000D02*
X132080000Y-60452000D01*
X129032000Y-61595000D02*
X130175000Y-60452000D01*
X129032000Y-86868000D02*
X129032000Y-61595000D01*
X126873000Y-89027000D02*
X129032000Y-86868000D01*
X101346000Y-89027000D02*
X126873000Y-89027000D01*
X90043000Y-68326000D02*
X90043000Y-77724000D01*
X88138000Y-66421000D02*
X90043000Y-68326000D01*
X85217000Y-36333000D02*
X82677000Y-36333000D01*
X132334000Y-60198000D02*
X132080000Y-60452000D01*
D18*
X127508000Y-46228000D02*
X126882999Y-45602999D01*
X126882999Y-45602999D02*
X125937999Y-45602999D01*
X125937999Y-45602999D02*
X125612999Y-45927999D01*
X125612999Y-45927999D02*
X125612999Y-47524003D01*
X125612999Y-47524003D02*
X117003002Y-56134000D01*
X117003002Y-56134000D02*
X116586000Y-56134000D01*
D19*
X104140000Y-48006000D02*
X104521000Y-48006000D01*
X104521000Y-48006000D02*
X105791000Y-48006000D01*
D18*
X99568000Y-66802000D02*
X99568000Y-60198000D01*
X99568000Y-60198000D02*
X100076000Y-59690000D01*
X106680000Y-73660000D02*
X106680000Y-72390000D01*
X106680000Y-72390000D02*
X102108000Y-67818000D01*
X99568000Y-66802000D02*
X101092000Y-66802000D01*
X101092000Y-66802000D02*
X102108000Y-67818000D01*
D19*
X101219000Y-48006000D02*
X99314000Y-48006000D01*
X99314000Y-48006000D02*
X99060000Y-48260000D01*
D18*
X92456000Y-72136000D02*
X96520000Y-72136000D01*
X99568000Y-66802000D02*
X97536000Y-66802000D01*
X97536000Y-66802000D02*
X96520000Y-67818000D01*
X96520000Y-67818000D02*
X96520000Y-72136000D01*
X96520000Y-72136000D02*
X96520000Y-74676000D01*
X96520000Y-74676000D02*
X93726000Y-77470000D01*
X102870000Y-59690000D02*
X103514999Y-59045001D01*
X100076000Y-59690000D02*
X100330000Y-59690000D01*
X103514999Y-59045001D02*
X103514999Y-53457001D01*
X100330000Y-59690000D02*
X102870000Y-59690000D01*
X103514999Y-53457001D02*
X103840001Y-53131999D01*
X103840001Y-53131999D02*
X104140000Y-52832000D01*
X93726000Y-59690000D02*
X100076000Y-59690000D01*
D19*
X98044000Y-49276000D02*
X99060000Y-48260000D01*
X89408000Y-49276000D02*
X98044000Y-49276000D01*
X104140000Y-48006000D02*
X101219000Y-48006000D01*
D18*
X104140000Y-52832000D02*
X104140000Y-48006000D01*
X119380000Y-59182000D02*
X118872000Y-58674000D01*
X118872000Y-58674000D02*
X112776000Y-58674000D01*
D19*
X115062000Y-45593000D02*
X115062000Y-56388000D01*
X115062000Y-56388000D02*
X112776000Y-58674000D01*
X126238000Y-46228000D02*
X126238000Y-48006000D01*
X126238000Y-48006000D02*
X124460000Y-49784000D01*
D18*
X91440000Y-67056000D02*
X92837000Y-68453000D01*
X92837000Y-68453000D02*
X95758000Y-68453000D01*
X91440000Y-66802000D02*
X91440000Y-65786000D01*
X91440000Y-66802000D02*
X91440000Y-67056000D01*
X122174000Y-63246000D02*
X122428000Y-62992000D01*
X117602000Y-67818000D02*
X122174000Y-63246000D01*
X122428000Y-57150000D02*
X124460000Y-55118000D01*
X122428000Y-62992000D02*
X122428000Y-57150000D01*
X123190000Y-64008000D02*
X118364000Y-68834000D01*
X123190000Y-59436000D02*
X123190000Y-64008000D01*
X123190000Y-58166000D02*
X123190000Y-59436000D01*
X124714000Y-56642000D02*
X123190000Y-58166000D01*
X121666000Y-58293000D02*
X121666000Y-61722000D01*
X113284000Y-76454000D02*
X113284000Y-70104000D01*
X113284000Y-70104000D02*
X116586000Y-66802000D01*
X116586000Y-66802000D02*
X120904000Y-62484000D01*
X121666000Y-61722000D02*
X120904000Y-62484000D01*
X121666000Y-58420000D02*
X121666000Y-58293000D01*
X121666000Y-58293000D02*
X121666000Y-54610000D01*
X86233000Y-41529000D02*
X86233000Y-40397000D01*
X86233000Y-41529000D02*
X86233000Y-57277000D01*
X82169000Y-61341000D02*
X86233000Y-57277000D01*
X86233000Y-40397000D02*
X87757000Y-38873000D01*
X85217000Y-38873000D02*
X85217000Y-55753000D01*
X85217000Y-55753000D02*
X82169000Y-58801000D01*
D20*
G36*
X139319000Y-90424000D02*
X74422000Y-90424000D01*
X74422000Y-86959867D01*
X76004688Y-86959867D01*
X76278448Y-87622417D01*
X76784916Y-88129770D01*
X77446988Y-88404686D01*
X78163867Y-88405312D01*
X78826417Y-88131552D01*
X79333770Y-87625084D01*
X79608686Y-86963012D01*
X79609312Y-86246133D01*
X79335552Y-85583583D01*
X78829084Y-85076230D01*
X78167012Y-84801314D01*
X77450133Y-84800688D01*
X76787583Y-85074448D01*
X76280230Y-85580916D01*
X76005314Y-86242988D01*
X76004688Y-86959867D01*
X74422000Y-86959867D01*
X74422000Y-82885868D01*
X75662737Y-82885868D01*
X75773641Y-83163099D01*
X76419593Y-83406323D01*
X77109453Y-83383836D01*
X77642359Y-83163099D01*
X77753263Y-82885868D01*
X80742737Y-82885868D01*
X80853641Y-83163099D01*
X81499593Y-83406323D01*
X82189453Y-83383836D01*
X82722359Y-83163099D01*
X82833263Y-82885868D01*
X81788000Y-81840605D01*
X80742737Y-82885868D01*
X77753263Y-82885868D01*
X76708000Y-81840605D01*
X75662737Y-82885868D01*
X74422000Y-82885868D01*
X74422000Y-81372593D01*
X74962677Y-81372593D01*
X74985164Y-82062453D01*
X75205901Y-82595359D01*
X75483132Y-82706263D01*
X76528395Y-81661000D01*
X76887605Y-81661000D01*
X77932868Y-82706263D01*
X78210099Y-82595359D01*
X78453323Y-81949407D01*
X78434521Y-81372593D01*
X80042677Y-81372593D01*
X80065164Y-82062453D01*
X80285901Y-82595359D01*
X80563132Y-82706263D01*
X81608395Y-81661000D01*
X81967605Y-81661000D01*
X83012868Y-82706263D01*
X83290099Y-82595359D01*
X83533323Y-81949407D01*
X83510836Y-81259547D01*
X83290099Y-80726641D01*
X83012868Y-80615737D01*
X81967605Y-81661000D01*
X81608395Y-81661000D01*
X80563132Y-80615737D01*
X80285901Y-80726641D01*
X80042677Y-81372593D01*
X78434521Y-81372593D01*
X78430836Y-81259547D01*
X78210099Y-80726641D01*
X77932868Y-80615737D01*
X76887605Y-81661000D01*
X76528395Y-81661000D01*
X75483132Y-80615737D01*
X75205901Y-80726641D01*
X74962677Y-81372593D01*
X74422000Y-81372593D01*
X74422000Y-80436132D01*
X75662737Y-80436132D01*
X76708000Y-81481395D01*
X77753263Y-80436132D01*
X77642359Y-80158901D01*
X76996407Y-79915677D01*
X76306547Y-79938164D01*
X75773641Y-80158901D01*
X75662737Y-80436132D01*
X74422000Y-80436132D01*
X74422000Y-79403603D01*
X77820752Y-79403603D01*
X78037543Y-79928275D01*
X78438614Y-80330047D01*
X78962907Y-80547752D01*
X79530603Y-80548248D01*
X79801943Y-80436132D01*
X80742737Y-80436132D01*
X81788000Y-81481395D01*
X82833263Y-80436132D01*
X82722359Y-80158901D01*
X82076407Y-79915677D01*
X81386547Y-79938164D01*
X80853641Y-80158901D01*
X80742737Y-80436132D01*
X79801943Y-80436132D01*
X80055275Y-80331457D01*
X80457047Y-79930386D01*
X80674752Y-79406093D01*
X80675248Y-78838397D01*
X80458457Y-78313725D01*
X80057386Y-77911953D01*
X79801905Y-77805868D01*
X80742737Y-77805868D01*
X80853641Y-78083099D01*
X81499593Y-78326323D01*
X82189453Y-78303836D01*
X82722359Y-78083099D01*
X82833263Y-77805868D01*
X81788000Y-76760605D01*
X80742737Y-77805868D01*
X79801905Y-77805868D01*
X79533093Y-77694248D01*
X78965397Y-77693752D01*
X78440725Y-77910543D01*
X78038953Y-78311614D01*
X77821248Y-78835907D01*
X77820752Y-79403603D01*
X74422000Y-79403603D01*
X74422000Y-77805868D01*
X75662737Y-77805868D01*
X75773641Y-78083099D01*
X76419593Y-78326323D01*
X77109453Y-78303836D01*
X77642359Y-78083099D01*
X77753263Y-77805868D01*
X76708000Y-76760605D01*
X75662737Y-77805868D01*
X74422000Y-77805868D01*
X74422000Y-76292593D01*
X74962677Y-76292593D01*
X74985164Y-76982453D01*
X75205901Y-77515359D01*
X75483132Y-77626263D01*
X76528395Y-76581000D01*
X76887605Y-76581000D01*
X77932868Y-77626263D01*
X78210099Y-77515359D01*
X78453323Y-76869407D01*
X78434521Y-76292593D01*
X80042677Y-76292593D01*
X80065164Y-76982453D01*
X80285901Y-77515359D01*
X80563132Y-77626263D01*
X81608395Y-76581000D01*
X81967605Y-76581000D01*
X83012868Y-77626263D01*
X83290099Y-77515359D01*
X83533323Y-76869407D01*
X83510836Y-76179547D01*
X83290099Y-75646641D01*
X83012868Y-75535737D01*
X81967605Y-76581000D01*
X81608395Y-76581000D01*
X80563132Y-75535737D01*
X80285901Y-75646641D01*
X80042677Y-76292593D01*
X78434521Y-76292593D01*
X78430836Y-76179547D01*
X78210099Y-75646641D01*
X77932868Y-75535737D01*
X76887605Y-76581000D01*
X76528395Y-76581000D01*
X75483132Y-75535737D01*
X75205901Y-75646641D01*
X74962677Y-76292593D01*
X74422000Y-76292593D01*
X74422000Y-75356132D01*
X75662737Y-75356132D01*
X76708000Y-76401395D01*
X77753263Y-75356132D01*
X80742737Y-75356132D01*
X81788000Y-76401395D01*
X82833263Y-75356132D01*
X82722359Y-75078901D01*
X82076407Y-74835677D01*
X81386547Y-74858164D01*
X80853641Y-75078901D01*
X80742737Y-75356132D01*
X77753263Y-75356132D01*
X77642359Y-75078901D01*
X76996407Y-74835677D01*
X76306547Y-74858164D01*
X75773641Y-75078901D01*
X75662737Y-75356132D01*
X74422000Y-75356132D01*
X74422000Y-63524110D01*
X80727524Y-63524110D01*
X80848845Y-63754000D01*
X82042000Y-63754000D01*
X82042000Y-63734000D01*
X82296000Y-63734000D01*
X82296000Y-63754000D01*
X83489155Y-63754000D01*
X83610476Y-63524110D01*
X83440645Y-63114076D01*
X83050358Y-62685817D01*
X82689417Y-62516309D01*
X83096993Y-62243975D01*
X83373812Y-61829687D01*
X83471018Y-61341000D01*
X83384517Y-60906129D01*
X86623323Y-57667323D01*
X86742982Y-57488242D01*
X86785000Y-57277000D01*
X86785000Y-49419975D01*
X88680874Y-49419975D01*
X88791320Y-49687275D01*
X88995650Y-49891961D01*
X89262756Y-50002874D01*
X89551975Y-50003126D01*
X89794299Y-49903000D01*
X98044000Y-49903000D01*
X98283943Y-49855272D01*
X98487356Y-49719356D01*
X99230578Y-48976134D01*
X99471275Y-48876680D01*
X99675961Y-48672350D01*
X99692301Y-48633000D01*
X100833235Y-48633000D01*
X101073756Y-48732874D01*
X101362975Y-48733126D01*
X101605299Y-48633000D01*
X103588000Y-48633000D01*
X103588000Y-52355800D01*
X103524039Y-52419650D01*
X103413126Y-52686756D01*
X103413046Y-52778308D01*
X103124676Y-53066678D01*
X103005017Y-53245759D01*
X103005017Y-53245760D01*
X102962999Y-53457001D01*
X102962999Y-58816355D01*
X102641354Y-59138000D01*
X94202200Y-59138000D01*
X94138350Y-59074039D01*
X93871244Y-58963126D01*
X93582025Y-58962874D01*
X93314725Y-59073320D01*
X93110039Y-59277650D01*
X92999126Y-59544756D01*
X92998874Y-59833975D01*
X93109320Y-60101275D01*
X93313650Y-60305961D01*
X93580756Y-60416874D01*
X93869975Y-60417126D01*
X94137275Y-60306680D01*
X94202068Y-60242000D01*
X99016000Y-60242000D01*
X99016000Y-66250000D01*
X97536000Y-66250000D01*
X97324758Y-66292018D01*
X97145677Y-66411677D01*
X96129677Y-67427677D01*
X96010018Y-67606758D01*
X95996638Y-67674025D01*
X95979940Y-67757973D01*
X95903244Y-67726126D01*
X95614025Y-67725874D01*
X95346725Y-67836320D01*
X95281932Y-67901000D01*
X93065646Y-67901000D01*
X91992000Y-66827354D01*
X91992000Y-66262200D01*
X92055961Y-66198350D01*
X92166874Y-65931244D01*
X92167126Y-65642025D01*
X92056680Y-65374725D01*
X91852350Y-65170039D01*
X91585244Y-65059126D01*
X91296025Y-65058874D01*
X91028725Y-65169320D01*
X90824039Y-65373650D01*
X90713126Y-65640756D01*
X90712874Y-65929975D01*
X90823320Y-66197275D01*
X90888000Y-66262068D01*
X90888000Y-67056000D01*
X90930018Y-67267242D01*
X91049677Y-67446323D01*
X92446677Y-68843323D01*
X92625759Y-68962982D01*
X92837000Y-69005000D01*
X95281800Y-69005000D01*
X95345650Y-69068961D01*
X95612756Y-69179874D01*
X95901975Y-69180126D01*
X95968000Y-69152845D01*
X95968000Y-71584000D01*
X92932200Y-71584000D01*
X92868350Y-71520039D01*
X92601244Y-71409126D01*
X92312025Y-71408874D01*
X92044725Y-71519320D01*
X91840039Y-71723650D01*
X91729126Y-71990756D01*
X91728874Y-72279975D01*
X91839320Y-72547275D01*
X92043650Y-72751961D01*
X92310756Y-72862874D01*
X92599975Y-72863126D01*
X92867275Y-72752680D01*
X92932068Y-72688000D01*
X95968000Y-72688000D01*
X95968000Y-74447354D01*
X93672401Y-76742953D01*
X93582025Y-76742874D01*
X93314725Y-76853320D01*
X93110039Y-77057650D01*
X92999126Y-77324756D01*
X92998874Y-77613975D01*
X93109320Y-77881275D01*
X93313650Y-78085961D01*
X93580756Y-78196874D01*
X93869975Y-78197126D01*
X94137275Y-78086680D01*
X94341961Y-77882350D01*
X94452874Y-77615244D01*
X94452954Y-77523692D01*
X96910323Y-75066323D01*
X97029982Y-74887242D01*
X97072000Y-74676000D01*
X97072000Y-68046646D01*
X97764646Y-67354000D01*
X99091800Y-67354000D01*
X99155650Y-67417961D01*
X99422756Y-67528874D01*
X99711975Y-67529126D01*
X99979275Y-67418680D01*
X100044068Y-67354000D01*
X100863354Y-67354000D01*
X101380953Y-67871599D01*
X101380874Y-67961975D01*
X101491320Y-68229275D01*
X101695650Y-68433961D01*
X101962756Y-68544874D01*
X102054308Y-68544954D01*
X106128000Y-72618646D01*
X106128000Y-73183800D01*
X106064039Y-73247650D01*
X105953126Y-73514756D01*
X105952874Y-73803975D01*
X106063320Y-74071275D01*
X106267650Y-74275961D01*
X106534756Y-74386874D01*
X106823975Y-74387126D01*
X107091275Y-74276680D01*
X107295961Y-74072350D01*
X107406874Y-73805244D01*
X107407126Y-73516025D01*
X107296680Y-73248725D01*
X107232000Y-73183932D01*
X107232000Y-72452646D01*
X108668000Y-73888646D01*
X108668000Y-77749354D01*
X108404401Y-78012953D01*
X108314025Y-78012874D01*
X108046725Y-78123320D01*
X107842039Y-78327650D01*
X107731126Y-78594756D01*
X107730874Y-78883975D01*
X107841320Y-79151275D01*
X108045650Y-79355961D01*
X108312756Y-79466874D01*
X108601975Y-79467126D01*
X108869275Y-79356680D01*
X109073961Y-79152350D01*
X109184874Y-78885244D01*
X109184954Y-78793692D01*
X109610323Y-78368323D01*
X109729982Y-78189242D01*
X109772000Y-77978000D01*
X109772000Y-76002221D01*
X109823650Y-76053961D01*
X110090756Y-76164874D01*
X110379975Y-76165126D01*
X110446000Y-76137845D01*
X110446000Y-76320464D01*
X110398126Y-76435756D01*
X110397874Y-76724975D01*
X110508320Y-76992275D01*
X110712650Y-77196961D01*
X110979756Y-77307874D01*
X111268975Y-77308126D01*
X111536275Y-77197680D01*
X111740961Y-76993350D01*
X111851874Y-76726244D01*
X111851985Y-76597975D01*
X112556874Y-76597975D01*
X112667320Y-76865275D01*
X112871650Y-77069961D01*
X113138756Y-77180874D01*
X113427975Y-77181126D01*
X113695275Y-77070680D01*
X113899961Y-76866350D01*
X114010874Y-76599244D01*
X114011126Y-76310025D01*
X113900680Y-76042725D01*
X113836000Y-75977932D01*
X113836000Y-70332646D01*
X121876000Y-62292646D01*
X121876000Y-62763354D01*
X117548401Y-67090953D01*
X117458025Y-67090874D01*
X117190725Y-67201320D01*
X116986039Y-67405650D01*
X116875126Y-67672756D01*
X116874874Y-67961975D01*
X116985320Y-68229275D01*
X117189650Y-68433961D01*
X117456756Y-68544874D01*
X117696785Y-68545083D01*
X117637126Y-68688756D01*
X117636874Y-68977975D01*
X117747320Y-69245275D01*
X117951650Y-69449961D01*
X118218756Y-69560874D01*
X118507975Y-69561126D01*
X118775275Y-69450680D01*
X118979961Y-69246350D01*
X119090874Y-68979244D01*
X119090954Y-68887692D01*
X123580323Y-64398323D01*
X123699982Y-64219242D01*
X123742000Y-64008000D01*
X123742000Y-58394646D01*
X124767599Y-57369047D01*
X124857975Y-57369126D01*
X125125275Y-57258680D01*
X125329961Y-57054350D01*
X125440874Y-56787244D01*
X125441126Y-56498025D01*
X125330680Y-56230725D01*
X125126350Y-56026039D01*
X124859244Y-55915126D01*
X124570025Y-55914874D01*
X124354873Y-56003773D01*
X124513599Y-55845047D01*
X124603975Y-55845126D01*
X124871275Y-55734680D01*
X125075961Y-55530350D01*
X125186874Y-55263244D01*
X125187126Y-54974025D01*
X125076680Y-54706725D01*
X124872350Y-54502039D01*
X124605244Y-54391126D01*
X124316025Y-54390874D01*
X124048725Y-54501320D01*
X123844039Y-54705650D01*
X123733126Y-54972756D01*
X123733046Y-55064308D01*
X122218000Y-56579354D01*
X122218000Y-55086200D01*
X122281961Y-55022350D01*
X122392874Y-54755244D01*
X122393126Y-54466025D01*
X122282680Y-54198725D01*
X122078350Y-53994039D01*
X121991622Y-53958026D01*
X128660323Y-47289325D01*
X128779982Y-47110244D01*
X128822000Y-46899002D01*
X128822000Y-45440646D01*
X128831599Y-45431047D01*
X128921975Y-45431126D01*
X129189275Y-45320680D01*
X129393961Y-45116350D01*
X129504874Y-44849244D01*
X129505126Y-44560025D01*
X129394680Y-44292725D01*
X129190350Y-44088039D01*
X128923244Y-43977126D01*
X128634025Y-43976874D01*
X128366725Y-44087320D01*
X128162039Y-44291650D01*
X128051126Y-44558756D01*
X128051046Y-44650308D01*
X127879677Y-44821677D01*
X127760018Y-45000758D01*
X127737240Y-45115275D01*
X127718000Y-45212000D01*
X127718000Y-45528015D01*
X127653244Y-45501126D01*
X127561692Y-45501046D01*
X127273322Y-45212676D01*
X127094241Y-45093017D01*
X126882999Y-45050999D01*
X125937999Y-45050999D01*
X125726758Y-45093017D01*
X125642010Y-45149644D01*
X125547676Y-45212676D01*
X125222676Y-45537676D01*
X125103017Y-45716757D01*
X125083031Y-45817236D01*
X125060999Y-45927999D01*
X125060999Y-47295357D01*
X116885272Y-55471084D01*
X116731244Y-55407126D01*
X116442025Y-55406874D01*
X116174725Y-55517320D01*
X115970039Y-55721650D01*
X115859126Y-55988756D01*
X115858874Y-56277975D01*
X115969320Y-56545275D01*
X116173650Y-56749961D01*
X116440756Y-56860874D01*
X116729975Y-56861126D01*
X116997275Y-56750680D01*
X117076766Y-56671328D01*
X117214244Y-56643982D01*
X117393325Y-56524323D01*
X123807957Y-50109691D01*
X123843320Y-50195275D01*
X124018048Y-50370308D01*
X118981100Y-55407256D01*
X118714725Y-55517320D01*
X118510039Y-55721650D01*
X118399126Y-55988756D01*
X118398874Y-56277975D01*
X118509320Y-56545275D01*
X118713650Y-56749961D01*
X118980756Y-56860874D01*
X119269975Y-56861126D01*
X119537275Y-56750680D01*
X119741961Y-56546350D01*
X119852874Y-56279244D01*
X119853033Y-56096615D01*
X121013957Y-54935691D01*
X121049320Y-55021275D01*
X121114000Y-55086068D01*
X121114000Y-61493354D01*
X112893677Y-69713677D01*
X112774018Y-69892758D01*
X112774018Y-69892759D01*
X112732000Y-70104000D01*
X112732000Y-75977800D01*
X112668039Y-76041650D01*
X112557126Y-76308756D01*
X112556874Y-76597975D01*
X111851985Y-76597975D01*
X111852126Y-76437025D01*
X111741680Y-76169725D01*
X111550000Y-75977711D01*
X111550000Y-75450249D01*
X111741756Y-75529874D01*
X112030975Y-75530126D01*
X112298275Y-75419680D01*
X112502961Y-75215350D01*
X112613874Y-74948244D01*
X112614126Y-74659025D01*
X112503680Y-74391725D01*
X112439000Y-74326932D01*
X112439000Y-72263000D01*
X112430248Y-72219000D01*
X112396982Y-72051758D01*
X112277323Y-71872677D01*
X111296000Y-70891354D01*
X111296000Y-54324200D01*
X111359961Y-54260350D01*
X111470874Y-53993244D01*
X111471126Y-53704025D01*
X111360680Y-53436725D01*
X111156350Y-53232039D01*
X110889244Y-53121126D01*
X110600025Y-53120874D01*
X110357770Y-53220972D01*
X110292750Y-53155839D01*
X110025644Y-53044926D01*
X109736425Y-53044674D01*
X109469125Y-53155120D01*
X109361618Y-53262440D01*
X109328680Y-53182725D01*
X109124350Y-52978039D01*
X108857244Y-52867126D01*
X108568025Y-52866874D01*
X108300725Y-52977320D01*
X108096039Y-53181650D01*
X107985126Y-53448756D01*
X107984874Y-53737975D01*
X108095320Y-54005275D01*
X108160000Y-54070068D01*
X108160000Y-71819354D01*
X106470000Y-70129354D01*
X106470000Y-65842221D01*
X106521650Y-65893961D01*
X106788756Y-66004874D01*
X107077975Y-66005126D01*
X107345275Y-65894680D01*
X107549961Y-65690350D01*
X107660874Y-65423244D01*
X107661126Y-65134025D01*
X107550680Y-64866725D01*
X107486000Y-64801932D01*
X107486000Y-46879975D01*
X109762874Y-46879975D01*
X109873320Y-47147275D01*
X110077650Y-47351961D01*
X110344756Y-47462874D01*
X110436308Y-47462954D01*
X112224000Y-49250646D01*
X112224000Y-53879800D01*
X112160039Y-53943650D01*
X112049126Y-54210756D01*
X112048874Y-54499975D01*
X112159320Y-54767275D01*
X112363650Y-54971961D01*
X112630756Y-55082874D01*
X112919975Y-55083126D01*
X113187275Y-54972680D01*
X113391961Y-54768350D01*
X113502874Y-54501244D01*
X113503126Y-54212025D01*
X113392680Y-53944725D01*
X113328000Y-53879932D01*
X113328000Y-49022000D01*
X113298951Y-48875961D01*
X113285982Y-48810758D01*
X113166323Y-48631677D01*
X111217047Y-46682401D01*
X111217126Y-46592025D01*
X111106680Y-46324725D01*
X110902350Y-46120039D01*
X110635244Y-46009126D01*
X110346025Y-46008874D01*
X110078725Y-46119320D01*
X109874039Y-46323650D01*
X109763126Y-46590756D01*
X109762874Y-46879975D01*
X107486000Y-46879975D01*
X107486000Y-46482000D01*
X107456951Y-46335961D01*
X107443982Y-46270758D01*
X107324323Y-46091677D01*
X106899047Y-45666401D01*
X106899126Y-45576025D01*
X106788680Y-45308725D01*
X106584350Y-45104039D01*
X106317244Y-44993126D01*
X106028025Y-44992874D01*
X105760725Y-45103320D01*
X105556039Y-45307650D01*
X105445126Y-45574756D01*
X105444874Y-45863975D01*
X105555320Y-46131275D01*
X105759650Y-46335961D01*
X106026756Y-46446874D01*
X106118308Y-46446954D01*
X106382000Y-46710646D01*
X106382000Y-47569000D01*
X106203350Y-47390039D01*
X105936244Y-47279126D01*
X105647025Y-47278874D01*
X105404701Y-47379000D01*
X101604765Y-47379000D01*
X101364244Y-47279126D01*
X101075025Y-47278874D01*
X100832701Y-47379000D01*
X99314000Y-47379000D01*
X99074057Y-47426728D01*
X98915198Y-47532874D01*
X98913859Y-47533769D01*
X98648725Y-47643320D01*
X98444039Y-47847650D01*
X98343489Y-48089799D01*
X97784288Y-48649000D01*
X97754883Y-48649000D01*
X97755126Y-48370025D01*
X97644680Y-48102725D01*
X97440350Y-47898039D01*
X97173244Y-47787126D01*
X97081692Y-47787046D01*
X96310000Y-47015354D01*
X96310000Y-43910200D01*
X96373961Y-43846350D01*
X96484874Y-43579244D01*
X96485126Y-43290025D01*
X96374680Y-43022725D01*
X96170350Y-42818039D01*
X95903244Y-42707126D01*
X95614025Y-42706874D01*
X95346725Y-42817320D01*
X95142039Y-43021650D01*
X95031126Y-43288756D01*
X95030874Y-43577975D01*
X95141320Y-43845275D01*
X95206000Y-43910068D01*
X95206000Y-47244000D01*
X95248018Y-47455242D01*
X95367677Y-47634323D01*
X96300953Y-48567599D01*
X96300882Y-48649000D01*
X89793765Y-48649000D01*
X89553244Y-48549126D01*
X89264025Y-48548874D01*
X88996725Y-48659320D01*
X88792039Y-48863650D01*
X88681126Y-49130756D01*
X88680874Y-49419975D01*
X86785000Y-49419975D01*
X86785000Y-40625646D01*
X87321176Y-40089470D01*
X87499158Y-40163375D01*
X88012590Y-40163823D01*
X88487111Y-39967755D01*
X88850479Y-39605020D01*
X89027192Y-39179449D01*
X89202245Y-39603111D01*
X89564980Y-39966479D01*
X90039158Y-40163375D01*
X90552590Y-40163823D01*
X91027111Y-39967755D01*
X91068132Y-39926805D01*
X91962800Y-39926805D01*
X92044741Y-40179516D01*
X92605030Y-40383248D01*
X93200635Y-40357058D01*
X93629259Y-40179516D01*
X93711200Y-39926805D01*
X92837000Y-39052605D01*
X91962800Y-39926805D01*
X91068132Y-39926805D01*
X91390479Y-39605020D01*
X91448077Y-39466310D01*
X91530484Y-39665259D01*
X91783195Y-39747200D01*
X92657395Y-38873000D01*
X92643253Y-38858858D01*
X92822858Y-38679253D01*
X92837000Y-38693395D01*
X92851143Y-38679253D01*
X93030748Y-38858858D01*
X93016605Y-38873000D01*
X93890805Y-39747200D01*
X94143516Y-39665259D01*
X94347248Y-39104970D01*
X94321058Y-38509365D01*
X94169719Y-38144000D01*
X109117356Y-38144000D01*
X115280991Y-44307635D01*
X114212000Y-44307635D01*
X114053763Y-44337409D01*
X113908433Y-44430927D01*
X113810936Y-44573619D01*
X113776635Y-44743000D01*
X113776635Y-46443000D01*
X113806409Y-46601237D01*
X113899927Y-46746567D01*
X114042619Y-46844064D01*
X114212000Y-46878365D01*
X114435000Y-46878365D01*
X114435000Y-56128288D01*
X112605422Y-57957866D01*
X112364725Y-58057320D01*
X112160039Y-58261650D01*
X112049126Y-58528756D01*
X112048874Y-58817975D01*
X112159320Y-59085275D01*
X112363650Y-59289961D01*
X112630756Y-59400874D01*
X112919975Y-59401126D01*
X113187275Y-59290680D01*
X113252068Y-59226000D01*
X118643354Y-59226000D01*
X118652953Y-59235599D01*
X118652874Y-59325975D01*
X118763320Y-59593275D01*
X118967650Y-59797961D01*
X119234756Y-59908874D01*
X119523975Y-59909126D01*
X119791275Y-59798680D01*
X119995961Y-59594350D01*
X120106874Y-59327244D01*
X120107126Y-59038025D01*
X119996680Y-58770725D01*
X119792350Y-58566039D01*
X119525244Y-58455126D01*
X119433692Y-58455046D01*
X119262323Y-58283677D01*
X119083242Y-58164018D01*
X118872000Y-58122000D01*
X114214712Y-58122000D01*
X115505356Y-56831356D01*
X115534831Y-56787244D01*
X115641272Y-56627943D01*
X115689000Y-56388000D01*
X115689000Y-46878365D01*
X115912000Y-46878365D01*
X116070237Y-46848591D01*
X116215567Y-46755073D01*
X116227281Y-46737929D01*
X116823676Y-47334324D01*
X117002757Y-47453983D01*
X117213999Y-47496001D01*
X117427509Y-47496001D01*
X117493320Y-47655275D01*
X117697650Y-47859961D01*
X117964756Y-47970874D01*
X118253975Y-47971126D01*
X118521275Y-47860680D01*
X118725961Y-47656350D01*
X118836874Y-47389244D01*
X118837126Y-47100025D01*
X118726680Y-46832725D01*
X118522350Y-46628039D01*
X118412830Y-46582562D01*
X118504975Y-46520993D01*
X118781794Y-46106705D01*
X118872000Y-45653209D01*
X118962206Y-46106705D01*
X119239025Y-46520993D01*
X119590000Y-46755508D01*
X119590000Y-49772922D01*
X119536024Y-49772875D01*
X119268724Y-49883321D01*
X119064038Y-50087651D01*
X118953125Y-50354757D01*
X118952873Y-50643976D01*
X119063319Y-50911276D01*
X119267649Y-51115962D01*
X119534755Y-51226875D01*
X119823974Y-51227127D01*
X120091274Y-51116681D01*
X120295960Y-50912351D01*
X120406873Y-50645245D01*
X120406953Y-50553693D01*
X120532323Y-50428323D01*
X120651982Y-50249242D01*
X120694000Y-50038000D01*
X120694000Y-46755508D01*
X121044975Y-46520993D01*
X121317309Y-46113417D01*
X121486817Y-46474358D01*
X121915076Y-46864645D01*
X122325110Y-47034476D01*
X122555000Y-46913155D01*
X122555000Y-45720000D01*
X122809000Y-45720000D01*
X122809000Y-46913155D01*
X123038890Y-47034476D01*
X123448924Y-46864645D01*
X123877183Y-46474358D01*
X124123486Y-45949892D01*
X124002819Y-45720000D01*
X122809000Y-45720000D01*
X122555000Y-45720000D01*
X122535000Y-45720000D01*
X122535000Y-45466000D01*
X122555000Y-45466000D01*
X122555000Y-44272845D01*
X122809000Y-44272845D01*
X122809000Y-45466000D01*
X124002819Y-45466000D01*
X124123486Y-45236108D01*
X123877183Y-44711642D01*
X123448924Y-44321355D01*
X123038890Y-44151524D01*
X122809000Y-44272845D01*
X122555000Y-44272845D01*
X122325110Y-44151524D01*
X121915076Y-44321355D01*
X121486817Y-44711642D01*
X121317309Y-45072583D01*
X121044975Y-44665007D01*
X120630687Y-44388188D01*
X120142000Y-44290982D01*
X119721688Y-44374587D01*
X119741961Y-44354350D01*
X119852874Y-44087244D01*
X119853126Y-43798025D01*
X119742680Y-43530725D01*
X119638137Y-43426000D01*
X129026288Y-43426000D01*
X131453000Y-45852712D01*
X131453000Y-59166635D01*
X131230000Y-59166635D01*
X131071763Y-59196409D01*
X130926433Y-59289927D01*
X130828936Y-59432619D01*
X130794635Y-59602000D01*
X130794635Y-59825000D01*
X130175000Y-59825000D01*
X129935057Y-59872728D01*
X129773325Y-59980794D01*
X129731644Y-60008644D01*
X128588644Y-61151644D01*
X128452728Y-61355057D01*
X128405000Y-61595000D01*
X128405000Y-86608288D01*
X126613288Y-88400000D01*
X101605712Y-88400000D01*
X90670000Y-77464288D01*
X90670000Y-68326000D01*
X90666371Y-68307756D01*
X90622273Y-68086058D01*
X90486356Y-67882644D01*
X88581356Y-65977644D01*
X88456115Y-65893961D01*
X88377943Y-65841728D01*
X88138000Y-65794000D01*
X83454365Y-65794000D01*
X83454365Y-65571000D01*
X83424591Y-65412763D01*
X83331073Y-65267433D01*
X83188381Y-65169936D01*
X83019000Y-65135635D01*
X82923764Y-65135635D01*
X83050358Y-65076183D01*
X83440645Y-64647924D01*
X83610476Y-64237890D01*
X83489155Y-64008000D01*
X82296000Y-64008000D01*
X82296000Y-64028000D01*
X82042000Y-64028000D01*
X82042000Y-64008000D01*
X80848845Y-64008000D01*
X80727524Y-64237890D01*
X80897355Y-64647924D01*
X81287642Y-65076183D01*
X81414236Y-65135635D01*
X81319000Y-65135635D01*
X81160763Y-65165409D01*
X81015433Y-65258927D01*
X80917936Y-65401619D01*
X80883635Y-65571000D01*
X80883635Y-67271000D01*
X80913409Y-67429237D01*
X81006927Y-67574567D01*
X81149619Y-67672064D01*
X81319000Y-67706365D01*
X83019000Y-67706365D01*
X83177237Y-67676591D01*
X83322567Y-67583073D01*
X83420064Y-67440381D01*
X83454365Y-67271000D01*
X83454365Y-67048000D01*
X87878288Y-67048000D01*
X89416000Y-68585712D01*
X89416000Y-77724000D01*
X89463728Y-77963943D01*
X89545258Y-78085961D01*
X89599644Y-78167356D01*
X100902644Y-89470356D01*
X101106058Y-89606273D01*
X101346000Y-89654000D01*
X126873000Y-89654000D01*
X127112943Y-89606272D01*
X127316356Y-89470356D01*
X129475356Y-87311356D01*
X129611272Y-87107943D01*
X129640726Y-86959867D01*
X134004688Y-86959867D01*
X134278448Y-87622417D01*
X134784916Y-88129770D01*
X135446988Y-88404686D01*
X136163867Y-88405312D01*
X136826417Y-88131552D01*
X137333770Y-87625084D01*
X137608686Y-86963012D01*
X137609312Y-86246133D01*
X137335552Y-85583583D01*
X136829084Y-85076230D01*
X136167012Y-84801314D01*
X135450133Y-84800688D01*
X134787583Y-85074448D01*
X134280230Y-85580916D01*
X134005314Y-86242988D01*
X134004688Y-86959867D01*
X129640726Y-86959867D01*
X129659000Y-86868000D01*
X129659000Y-68428890D01*
X130638524Y-68428890D01*
X130808355Y-68838924D01*
X131198642Y-69267183D01*
X131723108Y-69513486D01*
X131953000Y-69392819D01*
X131953000Y-68199000D01*
X132207000Y-68199000D01*
X132207000Y-69392819D01*
X132436892Y-69513486D01*
X132961358Y-69267183D01*
X133351645Y-68838924D01*
X133521476Y-68428890D01*
X133400155Y-68199000D01*
X132207000Y-68199000D01*
X131953000Y-68199000D01*
X130759845Y-68199000D01*
X130638524Y-68428890D01*
X129659000Y-68428890D01*
X129659000Y-61854712D01*
X130434712Y-61079000D01*
X130794635Y-61079000D01*
X130794635Y-61302000D01*
X130824409Y-61460237D01*
X130917927Y-61605567D01*
X131060619Y-61703064D01*
X131230000Y-61737365D01*
X131942546Y-61737365D01*
X131566295Y-61812206D01*
X131152007Y-62089025D01*
X130875188Y-62503313D01*
X130777982Y-62992000D01*
X130875188Y-63480687D01*
X131152007Y-63894975D01*
X131566295Y-64171794D01*
X132019791Y-64262000D01*
X131566295Y-64352206D01*
X131152007Y-64629025D01*
X130875188Y-65043313D01*
X130777982Y-65532000D01*
X130875188Y-66020687D01*
X131152007Y-66434975D01*
X131559583Y-66707309D01*
X131198642Y-66876817D01*
X130808355Y-67305076D01*
X130638524Y-67715110D01*
X130759845Y-67945000D01*
X131953000Y-67945000D01*
X131953000Y-67925000D01*
X132207000Y-67925000D01*
X132207000Y-67945000D01*
X133400155Y-67945000D01*
X133521476Y-67715110D01*
X133351645Y-67305076D01*
X132961358Y-66876817D01*
X132600417Y-66707309D01*
X133007993Y-66434975D01*
X133284812Y-66020687D01*
X133382018Y-65532000D01*
X133284812Y-65043313D01*
X133007993Y-64629025D01*
X132593705Y-64352206D01*
X132140209Y-64262000D01*
X132593705Y-64171794D01*
X133007993Y-63894975D01*
X133284812Y-63480687D01*
X133382018Y-62992000D01*
X133284812Y-62503313D01*
X133007993Y-62089025D01*
X132593705Y-61812206D01*
X132217454Y-61737365D01*
X132930000Y-61737365D01*
X133088237Y-61707591D01*
X133233567Y-61614073D01*
X133331064Y-61471381D01*
X133365365Y-61302000D01*
X133365365Y-59602000D01*
X133335591Y-59443763D01*
X133242073Y-59298433D01*
X133099381Y-59200936D01*
X132930000Y-59166635D01*
X132707000Y-59166635D01*
X132707000Y-45593000D01*
X132679952Y-45457021D01*
X132659273Y-45353058D01*
X132523356Y-45149644D01*
X129729356Y-42355644D01*
X129719528Y-42349077D01*
X129525943Y-42219728D01*
X129286000Y-42172000D01*
X117353712Y-42172000D01*
X111770302Y-36588590D01*
X119486177Y-36588590D01*
X119682245Y-37063111D01*
X120044980Y-37426479D01*
X120470551Y-37603192D01*
X120046889Y-37778245D01*
X119683521Y-38140980D01*
X119486625Y-38615158D01*
X119486177Y-39128590D01*
X119682245Y-39603111D01*
X120044980Y-39966479D01*
X120519158Y-40163375D01*
X121032590Y-40163823D01*
X121507111Y-39967755D01*
X121870479Y-39605020D01*
X122047192Y-39179449D01*
X122222245Y-39603111D01*
X122584980Y-39966479D01*
X123059158Y-40163375D01*
X123572590Y-40163823D01*
X124047111Y-39967755D01*
X124410479Y-39605020D01*
X124587192Y-39179449D01*
X124762245Y-39603111D01*
X125124980Y-39966479D01*
X125599158Y-40163375D01*
X126112590Y-40163823D01*
X126587111Y-39967755D01*
X126950479Y-39605020D01*
X127127192Y-39179449D01*
X127302245Y-39603111D01*
X127664980Y-39966479D01*
X128139158Y-40163375D01*
X128652590Y-40163823D01*
X129127111Y-39967755D01*
X129168132Y-39926805D01*
X130062800Y-39926805D01*
X130144741Y-40179516D01*
X130705030Y-40383248D01*
X131300635Y-40357058D01*
X131729259Y-40179516D01*
X131811200Y-39926805D01*
X130937000Y-39052605D01*
X130062800Y-39926805D01*
X129168132Y-39926805D01*
X129490479Y-39605020D01*
X129548077Y-39466310D01*
X129630484Y-39665259D01*
X129883195Y-39747200D01*
X130757395Y-38873000D01*
X131116605Y-38873000D01*
X131990805Y-39747200D01*
X132243516Y-39665259D01*
X132447248Y-39104970D01*
X132421058Y-38509365D01*
X132243516Y-38080741D01*
X131990805Y-37998800D01*
X131116605Y-38873000D01*
X130757395Y-38873000D01*
X129883195Y-37998800D01*
X129630484Y-38080741D01*
X129553526Y-38292386D01*
X129491755Y-38142889D01*
X129129020Y-37779521D01*
X128703449Y-37602808D01*
X129127111Y-37427755D01*
X129490479Y-37065020D01*
X129667192Y-36639449D01*
X129842245Y-37063111D01*
X130204980Y-37426479D01*
X130343690Y-37484077D01*
X130144741Y-37566484D01*
X130062800Y-37819195D01*
X130937000Y-38693395D01*
X131670528Y-37959867D01*
X134004688Y-37959867D01*
X134278448Y-38622417D01*
X134784916Y-39129770D01*
X135446988Y-39404686D01*
X136163867Y-39405312D01*
X136826417Y-39131552D01*
X137333770Y-38625084D01*
X137608686Y-37963012D01*
X137609312Y-37246133D01*
X137335552Y-36583583D01*
X136829084Y-36076230D01*
X136167012Y-35801314D01*
X135450133Y-35800688D01*
X134787583Y-36074448D01*
X134280230Y-36580916D01*
X134005314Y-37242988D01*
X134004688Y-37959867D01*
X131670528Y-37959867D01*
X131811200Y-37819195D01*
X131729259Y-37566484D01*
X131517614Y-37489526D01*
X131667111Y-37427755D01*
X132030479Y-37065020D01*
X132227375Y-36590842D01*
X132227823Y-36077410D01*
X132031755Y-35602889D01*
X131669020Y-35239521D01*
X131194842Y-35042625D01*
X130681410Y-35042177D01*
X130206889Y-35238245D01*
X129843521Y-35600980D01*
X129666808Y-36026551D01*
X129491755Y-35602889D01*
X129129020Y-35239521D01*
X128654842Y-35042625D01*
X128141410Y-35042177D01*
X127666889Y-35238245D01*
X127303521Y-35600980D01*
X127126808Y-36026551D01*
X126951755Y-35602889D01*
X126589020Y-35239521D01*
X126114842Y-35042625D01*
X125601410Y-35042177D01*
X125126889Y-35238245D01*
X124763521Y-35600980D01*
X124705923Y-35739690D01*
X124623516Y-35540741D01*
X124370805Y-35458800D01*
X123496605Y-36333000D01*
X124370805Y-37207200D01*
X124623516Y-37125259D01*
X124700474Y-36913614D01*
X124762245Y-37063111D01*
X125124980Y-37426479D01*
X125550551Y-37603192D01*
X125126889Y-37778245D01*
X124763521Y-38140980D01*
X124586808Y-38566551D01*
X124411755Y-38142889D01*
X124049020Y-37779521D01*
X123910310Y-37721923D01*
X124109259Y-37639516D01*
X124191200Y-37386805D01*
X123317000Y-36512605D01*
X122442800Y-37386805D01*
X122524741Y-37639516D01*
X122736386Y-37716474D01*
X122586889Y-37778245D01*
X122223521Y-38140980D01*
X122046808Y-38566551D01*
X121871755Y-38142889D01*
X121509020Y-37779521D01*
X121083449Y-37602808D01*
X121507111Y-37427755D01*
X121870479Y-37065020D01*
X121928077Y-36926310D01*
X122010484Y-37125259D01*
X122263195Y-37207200D01*
X123137395Y-36333000D01*
X122263195Y-35458800D01*
X122010484Y-35540741D01*
X121933526Y-35752386D01*
X121871755Y-35602889D01*
X121548625Y-35279195D01*
X122442800Y-35279195D01*
X123317000Y-36153395D01*
X124191200Y-35279195D01*
X124109259Y-35026484D01*
X123548970Y-34822752D01*
X122953365Y-34848942D01*
X122524741Y-35026484D01*
X122442800Y-35279195D01*
X121548625Y-35279195D01*
X121509020Y-35239521D01*
X121034842Y-35042625D01*
X120521410Y-35042177D01*
X120046889Y-35238245D01*
X119683521Y-35600980D01*
X119486625Y-36075158D01*
X119486177Y-36588590D01*
X111770302Y-36588590D01*
X110806356Y-35624644D01*
X110697636Y-35552000D01*
X110602943Y-35488728D01*
X110363000Y-35441000D01*
X94874712Y-35441000D01*
X93915356Y-34481644D01*
X93711943Y-34345728D01*
X93472000Y-34298000D01*
X85725000Y-34298000D01*
X85485057Y-34345728D01*
X85281644Y-34481644D01*
X84773644Y-34989644D01*
X84653546Y-35169384D01*
X84486889Y-35238245D01*
X84123521Y-35600980D01*
X84079913Y-35706000D01*
X83814360Y-35706000D01*
X83771755Y-35602889D01*
X83409020Y-35239521D01*
X82934842Y-35042625D01*
X82421410Y-35042177D01*
X81946889Y-35238245D01*
X81583521Y-35600980D01*
X81386625Y-36075158D01*
X81386177Y-36588590D01*
X81582245Y-37063111D01*
X81944980Y-37426479D01*
X82300334Y-37574035D01*
X81813400Y-37574035D01*
X81655163Y-37603809D01*
X81509833Y-37697327D01*
X81412336Y-37840019D01*
X81378035Y-38009400D01*
X81378035Y-39736600D01*
X81407809Y-39894837D01*
X81501327Y-40040167D01*
X81644019Y-40137664D01*
X81813400Y-40171965D01*
X83540600Y-40171965D01*
X83698837Y-40142191D01*
X83844167Y-40048673D01*
X83941664Y-39905981D01*
X83975965Y-39736600D01*
X83975965Y-39249086D01*
X84122245Y-39603111D01*
X84484980Y-39966479D01*
X84665000Y-40041230D01*
X84665000Y-55524354D01*
X82587154Y-57602200D01*
X82194018Y-57524000D01*
X82143982Y-57524000D01*
X81655295Y-57621206D01*
X81241007Y-57898025D01*
X80964188Y-58312313D01*
X80866982Y-58801000D01*
X80964188Y-59289687D01*
X81241007Y-59703975D01*
X81655295Y-59980794D01*
X82108791Y-60071000D01*
X81655295Y-60161206D01*
X81241007Y-60438025D01*
X80964188Y-60852313D01*
X80866982Y-61341000D01*
X80964188Y-61829687D01*
X81241007Y-62243975D01*
X81648583Y-62516309D01*
X81287642Y-62685817D01*
X80897355Y-63114076D01*
X80727524Y-63524110D01*
X74422000Y-63524110D01*
X74422000Y-50399268D01*
X76272337Y-50399268D01*
X76383241Y-50676499D01*
X77029193Y-50919723D01*
X77719053Y-50897236D01*
X78251959Y-50676499D01*
X78362863Y-50399268D01*
X81352337Y-50399268D01*
X81463241Y-50676499D01*
X82109193Y-50919723D01*
X82799053Y-50897236D01*
X83331959Y-50676499D01*
X83442863Y-50399268D01*
X82397600Y-49354005D01*
X81352337Y-50399268D01*
X78362863Y-50399268D01*
X77317600Y-49354005D01*
X76272337Y-50399268D01*
X74422000Y-50399268D01*
X74422000Y-48885993D01*
X75572277Y-48885993D01*
X75594764Y-49575853D01*
X75815501Y-50108759D01*
X76092732Y-50219663D01*
X77137995Y-49174400D01*
X77497205Y-49174400D01*
X78542468Y-50219663D01*
X78819699Y-50108759D01*
X79062923Y-49462807D01*
X79044121Y-48885993D01*
X80652277Y-48885993D01*
X80674764Y-49575853D01*
X80895501Y-50108759D01*
X81172732Y-50219663D01*
X82217995Y-49174400D01*
X82577205Y-49174400D01*
X83622468Y-50219663D01*
X83899699Y-50108759D01*
X84142923Y-49462807D01*
X84120436Y-48772947D01*
X83899699Y-48240041D01*
X83622468Y-48129137D01*
X82577205Y-49174400D01*
X82217995Y-49174400D01*
X81172732Y-48129137D01*
X80895501Y-48240041D01*
X80652277Y-48885993D01*
X79044121Y-48885993D01*
X79040436Y-48772947D01*
X78819699Y-48240041D01*
X78542468Y-48129137D01*
X77497205Y-49174400D01*
X77137995Y-49174400D01*
X76092732Y-48129137D01*
X75815501Y-48240041D01*
X75572277Y-48885993D01*
X74422000Y-48885993D01*
X74422000Y-47949532D01*
X76272337Y-47949532D01*
X77317600Y-48994795D01*
X78362863Y-47949532D01*
X78251959Y-47672301D01*
X77606007Y-47429077D01*
X76916147Y-47451564D01*
X76383241Y-47672301D01*
X76272337Y-47949532D01*
X74422000Y-47949532D01*
X74422000Y-46917003D01*
X78430352Y-46917003D01*
X78647143Y-47441675D01*
X79048214Y-47843447D01*
X79572507Y-48061152D01*
X80140203Y-48061648D01*
X80411543Y-47949532D01*
X81352337Y-47949532D01*
X82397600Y-48994795D01*
X83442863Y-47949532D01*
X83331959Y-47672301D01*
X82686007Y-47429077D01*
X81996147Y-47451564D01*
X81463241Y-47672301D01*
X81352337Y-47949532D01*
X80411543Y-47949532D01*
X80664875Y-47844857D01*
X81066647Y-47443786D01*
X81284352Y-46919493D01*
X81284848Y-46351797D01*
X81068057Y-45827125D01*
X80666986Y-45425353D01*
X80411505Y-45319268D01*
X81352337Y-45319268D01*
X81463241Y-45596499D01*
X82109193Y-45839723D01*
X82799053Y-45817236D01*
X83331959Y-45596499D01*
X83442863Y-45319268D01*
X82397600Y-44274005D01*
X81352337Y-45319268D01*
X80411505Y-45319268D01*
X80142693Y-45207648D01*
X79574997Y-45207152D01*
X79050325Y-45423943D01*
X78648553Y-45825014D01*
X78430848Y-46349307D01*
X78430352Y-46917003D01*
X74422000Y-46917003D01*
X74422000Y-45319268D01*
X76272337Y-45319268D01*
X76383241Y-45596499D01*
X77029193Y-45839723D01*
X77719053Y-45817236D01*
X78251959Y-45596499D01*
X78362863Y-45319268D01*
X77317600Y-44274005D01*
X76272337Y-45319268D01*
X74422000Y-45319268D01*
X74422000Y-43805993D01*
X75572277Y-43805993D01*
X75594764Y-44495853D01*
X75815501Y-45028759D01*
X76092732Y-45139663D01*
X77137995Y-44094400D01*
X77497205Y-44094400D01*
X78542468Y-45139663D01*
X78819699Y-45028759D01*
X79062923Y-44382807D01*
X79044121Y-43805993D01*
X80652277Y-43805993D01*
X80674764Y-44495853D01*
X80895501Y-45028759D01*
X81172732Y-45139663D01*
X82217995Y-44094400D01*
X82577205Y-44094400D01*
X83622468Y-45139663D01*
X83899699Y-45028759D01*
X84142923Y-44382807D01*
X84120436Y-43692947D01*
X83899699Y-43160041D01*
X83622468Y-43049137D01*
X82577205Y-44094400D01*
X82217995Y-44094400D01*
X81172732Y-43049137D01*
X80895501Y-43160041D01*
X80652277Y-43805993D01*
X79044121Y-43805993D01*
X79040436Y-43692947D01*
X78819699Y-43160041D01*
X78542468Y-43049137D01*
X77497205Y-44094400D01*
X77137995Y-44094400D01*
X76092732Y-43049137D01*
X75815501Y-43160041D01*
X75572277Y-43805993D01*
X74422000Y-43805993D01*
X74422000Y-42869532D01*
X76272337Y-42869532D01*
X77317600Y-43914795D01*
X78362863Y-42869532D01*
X81352337Y-42869532D01*
X82397600Y-43914795D01*
X83442863Y-42869532D01*
X83331959Y-42592301D01*
X82686007Y-42349077D01*
X81996147Y-42371564D01*
X81463241Y-42592301D01*
X81352337Y-42869532D01*
X78362863Y-42869532D01*
X78251959Y-42592301D01*
X77606007Y-42349077D01*
X76916147Y-42371564D01*
X76383241Y-42592301D01*
X76272337Y-42869532D01*
X74422000Y-42869532D01*
X74422000Y-37959867D01*
X76004688Y-37959867D01*
X76278448Y-38622417D01*
X76784916Y-39129770D01*
X77446988Y-39404686D01*
X78163867Y-39405312D01*
X78826417Y-39131552D01*
X79333770Y-38625084D01*
X79608686Y-37963012D01*
X79609312Y-37246133D01*
X79335552Y-36583583D01*
X78829084Y-36076230D01*
X78167012Y-35801314D01*
X77450133Y-35800688D01*
X76787583Y-36074448D01*
X76280230Y-36580916D01*
X76005314Y-37242988D01*
X76004688Y-37959867D01*
X74422000Y-37959867D01*
X74422000Y-33909000D01*
X139319000Y-33909000D01*
X139319000Y-90424000D01*
X139319000Y-90424000D01*
G37*
X139319000Y-90424000D02*
X74422000Y-90424000D01*
X74422000Y-86959867D01*
X76004688Y-86959867D01*
X76278448Y-87622417D01*
X76784916Y-88129770D01*
X77446988Y-88404686D01*
X78163867Y-88405312D01*
X78826417Y-88131552D01*
X79333770Y-87625084D01*
X79608686Y-86963012D01*
X79609312Y-86246133D01*
X79335552Y-85583583D01*
X78829084Y-85076230D01*
X78167012Y-84801314D01*
X77450133Y-84800688D01*
X76787583Y-85074448D01*
X76280230Y-85580916D01*
X76005314Y-86242988D01*
X76004688Y-86959867D01*
X74422000Y-86959867D01*
X74422000Y-82885868D01*
X75662737Y-82885868D01*
X75773641Y-83163099D01*
X76419593Y-83406323D01*
X77109453Y-83383836D01*
X77642359Y-83163099D01*
X77753263Y-82885868D01*
X80742737Y-82885868D01*
X80853641Y-83163099D01*
X81499593Y-83406323D01*
X82189453Y-83383836D01*
X82722359Y-83163099D01*
X82833263Y-82885868D01*
X81788000Y-81840605D01*
X80742737Y-82885868D01*
X77753263Y-82885868D01*
X76708000Y-81840605D01*
X75662737Y-82885868D01*
X74422000Y-82885868D01*
X74422000Y-81372593D01*
X74962677Y-81372593D01*
X74985164Y-82062453D01*
X75205901Y-82595359D01*
X75483132Y-82706263D01*
X76528395Y-81661000D01*
X76887605Y-81661000D01*
X77932868Y-82706263D01*
X78210099Y-82595359D01*
X78453323Y-81949407D01*
X78434521Y-81372593D01*
X80042677Y-81372593D01*
X80065164Y-82062453D01*
X80285901Y-82595359D01*
X80563132Y-82706263D01*
X81608395Y-81661000D01*
X81967605Y-81661000D01*
X83012868Y-82706263D01*
X83290099Y-82595359D01*
X83533323Y-81949407D01*
X83510836Y-81259547D01*
X83290099Y-80726641D01*
X83012868Y-80615737D01*
X81967605Y-81661000D01*
X81608395Y-81661000D01*
X80563132Y-80615737D01*
X80285901Y-80726641D01*
X80042677Y-81372593D01*
X78434521Y-81372593D01*
X78430836Y-81259547D01*
X78210099Y-80726641D01*
X77932868Y-80615737D01*
X76887605Y-81661000D01*
X76528395Y-81661000D01*
X75483132Y-80615737D01*
X75205901Y-80726641D01*
X74962677Y-81372593D01*
X74422000Y-81372593D01*
X74422000Y-80436132D01*
X75662737Y-80436132D01*
X76708000Y-81481395D01*
X77753263Y-80436132D01*
X77642359Y-80158901D01*
X76996407Y-79915677D01*
X76306547Y-79938164D01*
X75773641Y-80158901D01*
X75662737Y-80436132D01*
X74422000Y-80436132D01*
X74422000Y-79403603D01*
X77820752Y-79403603D01*
X78037543Y-79928275D01*
X78438614Y-80330047D01*
X78962907Y-80547752D01*
X79530603Y-80548248D01*
X79801943Y-80436132D01*
X80742737Y-80436132D01*
X81788000Y-81481395D01*
X82833263Y-80436132D01*
X82722359Y-80158901D01*
X82076407Y-79915677D01*
X81386547Y-79938164D01*
X80853641Y-80158901D01*
X80742737Y-80436132D01*
X79801943Y-80436132D01*
X80055275Y-80331457D01*
X80457047Y-79930386D01*
X80674752Y-79406093D01*
X80675248Y-78838397D01*
X80458457Y-78313725D01*
X80057386Y-77911953D01*
X79801905Y-77805868D01*
X80742737Y-77805868D01*
X80853641Y-78083099D01*
X81499593Y-78326323D01*
X82189453Y-78303836D01*
X82722359Y-78083099D01*
X82833263Y-77805868D01*
X81788000Y-76760605D01*
X80742737Y-77805868D01*
X79801905Y-77805868D01*
X79533093Y-77694248D01*
X78965397Y-77693752D01*
X78440725Y-77910543D01*
X78038953Y-78311614D01*
X77821248Y-78835907D01*
X77820752Y-79403603D01*
X74422000Y-79403603D01*
X74422000Y-77805868D01*
X75662737Y-77805868D01*
X75773641Y-78083099D01*
X76419593Y-78326323D01*
X77109453Y-78303836D01*
X77642359Y-78083099D01*
X77753263Y-77805868D01*
X76708000Y-76760605D01*
X75662737Y-77805868D01*
X74422000Y-77805868D01*
X74422000Y-76292593D01*
X74962677Y-76292593D01*
X74985164Y-76982453D01*
X75205901Y-77515359D01*
X75483132Y-77626263D01*
X76528395Y-76581000D01*
X76887605Y-76581000D01*
X77932868Y-77626263D01*
X78210099Y-77515359D01*
X78453323Y-76869407D01*
X78434521Y-76292593D01*
X80042677Y-76292593D01*
X80065164Y-76982453D01*
X80285901Y-77515359D01*
X80563132Y-77626263D01*
X81608395Y-76581000D01*
X81967605Y-76581000D01*
X83012868Y-77626263D01*
X83290099Y-77515359D01*
X83533323Y-76869407D01*
X83510836Y-76179547D01*
X83290099Y-75646641D01*
X83012868Y-75535737D01*
X81967605Y-76581000D01*
X81608395Y-76581000D01*
X80563132Y-75535737D01*
X80285901Y-75646641D01*
X80042677Y-76292593D01*
X78434521Y-76292593D01*
X78430836Y-76179547D01*
X78210099Y-75646641D01*
X77932868Y-75535737D01*
X76887605Y-76581000D01*
X76528395Y-76581000D01*
X75483132Y-75535737D01*
X75205901Y-75646641D01*
X74962677Y-76292593D01*
X74422000Y-76292593D01*
X74422000Y-75356132D01*
X75662737Y-75356132D01*
X76708000Y-76401395D01*
X77753263Y-75356132D01*
X80742737Y-75356132D01*
X81788000Y-76401395D01*
X82833263Y-75356132D01*
X82722359Y-75078901D01*
X82076407Y-74835677D01*
X81386547Y-74858164D01*
X80853641Y-75078901D01*
X80742737Y-75356132D01*
X77753263Y-75356132D01*
X77642359Y-75078901D01*
X76996407Y-74835677D01*
X76306547Y-74858164D01*
X75773641Y-75078901D01*
X75662737Y-75356132D01*
X74422000Y-75356132D01*
X74422000Y-63524110D01*
X80727524Y-63524110D01*
X80848845Y-63754000D01*
X82042000Y-63754000D01*
X82042000Y-63734000D01*
X82296000Y-63734000D01*
X82296000Y-63754000D01*
X83489155Y-63754000D01*
X83610476Y-63524110D01*
X83440645Y-63114076D01*
X83050358Y-62685817D01*
X82689417Y-62516309D01*
X83096993Y-62243975D01*
X83373812Y-61829687D01*
X83471018Y-61341000D01*
X83384517Y-60906129D01*
X86623323Y-57667323D01*
X86742982Y-57488242D01*
X86785000Y-57277000D01*
X86785000Y-49419975D01*
X88680874Y-49419975D01*
X88791320Y-49687275D01*
X88995650Y-49891961D01*
X89262756Y-50002874D01*
X89551975Y-50003126D01*
X89794299Y-49903000D01*
X98044000Y-49903000D01*
X98283943Y-49855272D01*
X98487356Y-49719356D01*
X99230578Y-48976134D01*
X99471275Y-48876680D01*
X99675961Y-48672350D01*
X99692301Y-48633000D01*
X100833235Y-48633000D01*
X101073756Y-48732874D01*
X101362975Y-48733126D01*
X101605299Y-48633000D01*
X103588000Y-48633000D01*
X103588000Y-52355800D01*
X103524039Y-52419650D01*
X103413126Y-52686756D01*
X103413046Y-52778308D01*
X103124676Y-53066678D01*
X103005017Y-53245759D01*
X103005017Y-53245760D01*
X102962999Y-53457001D01*
X102962999Y-58816355D01*
X102641354Y-59138000D01*
X94202200Y-59138000D01*
X94138350Y-59074039D01*
X93871244Y-58963126D01*
X93582025Y-58962874D01*
X93314725Y-59073320D01*
X93110039Y-59277650D01*
X92999126Y-59544756D01*
X92998874Y-59833975D01*
X93109320Y-60101275D01*
X93313650Y-60305961D01*
X93580756Y-60416874D01*
X93869975Y-60417126D01*
X94137275Y-60306680D01*
X94202068Y-60242000D01*
X99016000Y-60242000D01*
X99016000Y-66250000D01*
X97536000Y-66250000D01*
X97324758Y-66292018D01*
X97145677Y-66411677D01*
X96129677Y-67427677D01*
X96010018Y-67606758D01*
X95996638Y-67674025D01*
X95979940Y-67757973D01*
X95903244Y-67726126D01*
X95614025Y-67725874D01*
X95346725Y-67836320D01*
X95281932Y-67901000D01*
X93065646Y-67901000D01*
X91992000Y-66827354D01*
X91992000Y-66262200D01*
X92055961Y-66198350D01*
X92166874Y-65931244D01*
X92167126Y-65642025D01*
X92056680Y-65374725D01*
X91852350Y-65170039D01*
X91585244Y-65059126D01*
X91296025Y-65058874D01*
X91028725Y-65169320D01*
X90824039Y-65373650D01*
X90713126Y-65640756D01*
X90712874Y-65929975D01*
X90823320Y-66197275D01*
X90888000Y-66262068D01*
X90888000Y-67056000D01*
X90930018Y-67267242D01*
X91049677Y-67446323D01*
X92446677Y-68843323D01*
X92625759Y-68962982D01*
X92837000Y-69005000D01*
X95281800Y-69005000D01*
X95345650Y-69068961D01*
X95612756Y-69179874D01*
X95901975Y-69180126D01*
X95968000Y-69152845D01*
X95968000Y-71584000D01*
X92932200Y-71584000D01*
X92868350Y-71520039D01*
X92601244Y-71409126D01*
X92312025Y-71408874D01*
X92044725Y-71519320D01*
X91840039Y-71723650D01*
X91729126Y-71990756D01*
X91728874Y-72279975D01*
X91839320Y-72547275D01*
X92043650Y-72751961D01*
X92310756Y-72862874D01*
X92599975Y-72863126D01*
X92867275Y-72752680D01*
X92932068Y-72688000D01*
X95968000Y-72688000D01*
X95968000Y-74447354D01*
X93672401Y-76742953D01*
X93582025Y-76742874D01*
X93314725Y-76853320D01*
X93110039Y-77057650D01*
X92999126Y-77324756D01*
X92998874Y-77613975D01*
X93109320Y-77881275D01*
X93313650Y-78085961D01*
X93580756Y-78196874D01*
X93869975Y-78197126D01*
X94137275Y-78086680D01*
X94341961Y-77882350D01*
X94452874Y-77615244D01*
X94452954Y-77523692D01*
X96910323Y-75066323D01*
X97029982Y-74887242D01*
X97072000Y-74676000D01*
X97072000Y-68046646D01*
X97764646Y-67354000D01*
X99091800Y-67354000D01*
X99155650Y-67417961D01*
X99422756Y-67528874D01*
X99711975Y-67529126D01*
X99979275Y-67418680D01*
X100044068Y-67354000D01*
X100863354Y-67354000D01*
X101380953Y-67871599D01*
X101380874Y-67961975D01*
X101491320Y-68229275D01*
X101695650Y-68433961D01*
X101962756Y-68544874D01*
X102054308Y-68544954D01*
X106128000Y-72618646D01*
X106128000Y-73183800D01*
X106064039Y-73247650D01*
X105953126Y-73514756D01*
X105952874Y-73803975D01*
X106063320Y-74071275D01*
X106267650Y-74275961D01*
X106534756Y-74386874D01*
X106823975Y-74387126D01*
X107091275Y-74276680D01*
X107295961Y-74072350D01*
X107406874Y-73805244D01*
X107407126Y-73516025D01*
X107296680Y-73248725D01*
X107232000Y-73183932D01*
X107232000Y-72452646D01*
X108668000Y-73888646D01*
X108668000Y-77749354D01*
X108404401Y-78012953D01*
X108314025Y-78012874D01*
X108046725Y-78123320D01*
X107842039Y-78327650D01*
X107731126Y-78594756D01*
X107730874Y-78883975D01*
X107841320Y-79151275D01*
X108045650Y-79355961D01*
X108312756Y-79466874D01*
X108601975Y-79467126D01*
X108869275Y-79356680D01*
X109073961Y-79152350D01*
X109184874Y-78885244D01*
X109184954Y-78793692D01*
X109610323Y-78368323D01*
X109729982Y-78189242D01*
X109772000Y-77978000D01*
X109772000Y-76002221D01*
X109823650Y-76053961D01*
X110090756Y-76164874D01*
X110379975Y-76165126D01*
X110446000Y-76137845D01*
X110446000Y-76320464D01*
X110398126Y-76435756D01*
X110397874Y-76724975D01*
X110508320Y-76992275D01*
X110712650Y-77196961D01*
X110979756Y-77307874D01*
X111268975Y-77308126D01*
X111536275Y-77197680D01*
X111740961Y-76993350D01*
X111851874Y-76726244D01*
X111851985Y-76597975D01*
X112556874Y-76597975D01*
X112667320Y-76865275D01*
X112871650Y-77069961D01*
X113138756Y-77180874D01*
X113427975Y-77181126D01*
X113695275Y-77070680D01*
X113899961Y-76866350D01*
X114010874Y-76599244D01*
X114011126Y-76310025D01*
X113900680Y-76042725D01*
X113836000Y-75977932D01*
X113836000Y-70332646D01*
X121876000Y-62292646D01*
X121876000Y-62763354D01*
X117548401Y-67090953D01*
X117458025Y-67090874D01*
X117190725Y-67201320D01*
X116986039Y-67405650D01*
X116875126Y-67672756D01*
X116874874Y-67961975D01*
X116985320Y-68229275D01*
X117189650Y-68433961D01*
X117456756Y-68544874D01*
X117696785Y-68545083D01*
X117637126Y-68688756D01*
X117636874Y-68977975D01*
X117747320Y-69245275D01*
X117951650Y-69449961D01*
X118218756Y-69560874D01*
X118507975Y-69561126D01*
X118775275Y-69450680D01*
X118979961Y-69246350D01*
X119090874Y-68979244D01*
X119090954Y-68887692D01*
X123580323Y-64398323D01*
X123699982Y-64219242D01*
X123742000Y-64008000D01*
X123742000Y-58394646D01*
X124767599Y-57369047D01*
X124857975Y-57369126D01*
X125125275Y-57258680D01*
X125329961Y-57054350D01*
X125440874Y-56787244D01*
X125441126Y-56498025D01*
X125330680Y-56230725D01*
X125126350Y-56026039D01*
X124859244Y-55915126D01*
X124570025Y-55914874D01*
X124354873Y-56003773D01*
X124513599Y-55845047D01*
X124603975Y-55845126D01*
X124871275Y-55734680D01*
X125075961Y-55530350D01*
X125186874Y-55263244D01*
X125187126Y-54974025D01*
X125076680Y-54706725D01*
X124872350Y-54502039D01*
X124605244Y-54391126D01*
X124316025Y-54390874D01*
X124048725Y-54501320D01*
X123844039Y-54705650D01*
X123733126Y-54972756D01*
X123733046Y-55064308D01*
X122218000Y-56579354D01*
X122218000Y-55086200D01*
X122281961Y-55022350D01*
X122392874Y-54755244D01*
X122393126Y-54466025D01*
X122282680Y-54198725D01*
X122078350Y-53994039D01*
X121991622Y-53958026D01*
X128660323Y-47289325D01*
X128779982Y-47110244D01*
X128822000Y-46899002D01*
X128822000Y-45440646D01*
X128831599Y-45431047D01*
X128921975Y-45431126D01*
X129189275Y-45320680D01*
X129393961Y-45116350D01*
X129504874Y-44849244D01*
X129505126Y-44560025D01*
X129394680Y-44292725D01*
X129190350Y-44088039D01*
X128923244Y-43977126D01*
X128634025Y-43976874D01*
X128366725Y-44087320D01*
X128162039Y-44291650D01*
X128051126Y-44558756D01*
X128051046Y-44650308D01*
X127879677Y-44821677D01*
X127760018Y-45000758D01*
X127737240Y-45115275D01*
X127718000Y-45212000D01*
X127718000Y-45528015D01*
X127653244Y-45501126D01*
X127561692Y-45501046D01*
X127273322Y-45212676D01*
X127094241Y-45093017D01*
X126882999Y-45050999D01*
X125937999Y-45050999D01*
X125726758Y-45093017D01*
X125642010Y-45149644D01*
X125547676Y-45212676D01*
X125222676Y-45537676D01*
X125103017Y-45716757D01*
X125083031Y-45817236D01*
X125060999Y-45927999D01*
X125060999Y-47295357D01*
X116885272Y-55471084D01*
X116731244Y-55407126D01*
X116442025Y-55406874D01*
X116174725Y-55517320D01*
X115970039Y-55721650D01*
X115859126Y-55988756D01*
X115858874Y-56277975D01*
X115969320Y-56545275D01*
X116173650Y-56749961D01*
X116440756Y-56860874D01*
X116729975Y-56861126D01*
X116997275Y-56750680D01*
X117076766Y-56671328D01*
X117214244Y-56643982D01*
X117393325Y-56524323D01*
X123807957Y-50109691D01*
X123843320Y-50195275D01*
X124018048Y-50370308D01*
X118981100Y-55407256D01*
X118714725Y-55517320D01*
X118510039Y-55721650D01*
X118399126Y-55988756D01*
X118398874Y-56277975D01*
X118509320Y-56545275D01*
X118713650Y-56749961D01*
X118980756Y-56860874D01*
X119269975Y-56861126D01*
X119537275Y-56750680D01*
X119741961Y-56546350D01*
X119852874Y-56279244D01*
X119853033Y-56096615D01*
X121013957Y-54935691D01*
X121049320Y-55021275D01*
X121114000Y-55086068D01*
X121114000Y-61493354D01*
X112893677Y-69713677D01*
X112774018Y-69892758D01*
X112774018Y-69892759D01*
X112732000Y-70104000D01*
X112732000Y-75977800D01*
X112668039Y-76041650D01*
X112557126Y-76308756D01*
X112556874Y-76597975D01*
X111851985Y-76597975D01*
X111852126Y-76437025D01*
X111741680Y-76169725D01*
X111550000Y-75977711D01*
X111550000Y-75450249D01*
X111741756Y-75529874D01*
X112030975Y-75530126D01*
X112298275Y-75419680D01*
X112502961Y-75215350D01*
X112613874Y-74948244D01*
X112614126Y-74659025D01*
X112503680Y-74391725D01*
X112439000Y-74326932D01*
X112439000Y-72263000D01*
X112430248Y-72219000D01*
X112396982Y-72051758D01*
X112277323Y-71872677D01*
X111296000Y-70891354D01*
X111296000Y-54324200D01*
X111359961Y-54260350D01*
X111470874Y-53993244D01*
X111471126Y-53704025D01*
X111360680Y-53436725D01*
X111156350Y-53232039D01*
X110889244Y-53121126D01*
X110600025Y-53120874D01*
X110357770Y-53220972D01*
X110292750Y-53155839D01*
X110025644Y-53044926D01*
X109736425Y-53044674D01*
X109469125Y-53155120D01*
X109361618Y-53262440D01*
X109328680Y-53182725D01*
X109124350Y-52978039D01*
X108857244Y-52867126D01*
X108568025Y-52866874D01*
X108300725Y-52977320D01*
X108096039Y-53181650D01*
X107985126Y-53448756D01*
X107984874Y-53737975D01*
X108095320Y-54005275D01*
X108160000Y-54070068D01*
X108160000Y-71819354D01*
X106470000Y-70129354D01*
X106470000Y-65842221D01*
X106521650Y-65893961D01*
X106788756Y-66004874D01*
X107077975Y-66005126D01*
X107345275Y-65894680D01*
X107549961Y-65690350D01*
X107660874Y-65423244D01*
X107661126Y-65134025D01*
X107550680Y-64866725D01*
X107486000Y-64801932D01*
X107486000Y-46879975D01*
X109762874Y-46879975D01*
X109873320Y-47147275D01*
X110077650Y-47351961D01*
X110344756Y-47462874D01*
X110436308Y-47462954D01*
X112224000Y-49250646D01*
X112224000Y-53879800D01*
X112160039Y-53943650D01*
X112049126Y-54210756D01*
X112048874Y-54499975D01*
X112159320Y-54767275D01*
X112363650Y-54971961D01*
X112630756Y-55082874D01*
X112919975Y-55083126D01*
X113187275Y-54972680D01*
X113391961Y-54768350D01*
X113502874Y-54501244D01*
X113503126Y-54212025D01*
X113392680Y-53944725D01*
X113328000Y-53879932D01*
X113328000Y-49022000D01*
X113298951Y-48875961D01*
X113285982Y-48810758D01*
X113166323Y-48631677D01*
X111217047Y-46682401D01*
X111217126Y-46592025D01*
X111106680Y-46324725D01*
X110902350Y-46120039D01*
X110635244Y-46009126D01*
X110346025Y-46008874D01*
X110078725Y-46119320D01*
X109874039Y-46323650D01*
X109763126Y-46590756D01*
X109762874Y-46879975D01*
X107486000Y-46879975D01*
X107486000Y-46482000D01*
X107456951Y-46335961D01*
X107443982Y-46270758D01*
X107324323Y-46091677D01*
X106899047Y-45666401D01*
X106899126Y-45576025D01*
X106788680Y-45308725D01*
X106584350Y-45104039D01*
X106317244Y-44993126D01*
X106028025Y-44992874D01*
X105760725Y-45103320D01*
X105556039Y-45307650D01*
X105445126Y-45574756D01*
X105444874Y-45863975D01*
X105555320Y-46131275D01*
X105759650Y-46335961D01*
X106026756Y-46446874D01*
X106118308Y-46446954D01*
X106382000Y-46710646D01*
X106382000Y-47569000D01*
X106203350Y-47390039D01*
X105936244Y-47279126D01*
X105647025Y-47278874D01*
X105404701Y-47379000D01*
X101604765Y-47379000D01*
X101364244Y-47279126D01*
X101075025Y-47278874D01*
X100832701Y-47379000D01*
X99314000Y-47379000D01*
X99074057Y-47426728D01*
X98915198Y-47532874D01*
X98913859Y-47533769D01*
X98648725Y-47643320D01*
X98444039Y-47847650D01*
X98343489Y-48089799D01*
X97784288Y-48649000D01*
X97754883Y-48649000D01*
X97755126Y-48370025D01*
X97644680Y-48102725D01*
X97440350Y-47898039D01*
X97173244Y-47787126D01*
X97081692Y-47787046D01*
X96310000Y-47015354D01*
X96310000Y-43910200D01*
X96373961Y-43846350D01*
X96484874Y-43579244D01*
X96485126Y-43290025D01*
X96374680Y-43022725D01*
X96170350Y-42818039D01*
X95903244Y-42707126D01*
X95614025Y-42706874D01*
X95346725Y-42817320D01*
X95142039Y-43021650D01*
X95031126Y-43288756D01*
X95030874Y-43577975D01*
X95141320Y-43845275D01*
X95206000Y-43910068D01*
X95206000Y-47244000D01*
X95248018Y-47455242D01*
X95367677Y-47634323D01*
X96300953Y-48567599D01*
X96300882Y-48649000D01*
X89793765Y-48649000D01*
X89553244Y-48549126D01*
X89264025Y-48548874D01*
X88996725Y-48659320D01*
X88792039Y-48863650D01*
X88681126Y-49130756D01*
X88680874Y-49419975D01*
X86785000Y-49419975D01*
X86785000Y-40625646D01*
X87321176Y-40089470D01*
X87499158Y-40163375D01*
X88012590Y-40163823D01*
X88487111Y-39967755D01*
X88850479Y-39605020D01*
X89027192Y-39179449D01*
X89202245Y-39603111D01*
X89564980Y-39966479D01*
X90039158Y-40163375D01*
X90552590Y-40163823D01*
X91027111Y-39967755D01*
X91068132Y-39926805D01*
X91962800Y-39926805D01*
X92044741Y-40179516D01*
X92605030Y-40383248D01*
X93200635Y-40357058D01*
X93629259Y-40179516D01*
X93711200Y-39926805D01*
X92837000Y-39052605D01*
X91962800Y-39926805D01*
X91068132Y-39926805D01*
X91390479Y-39605020D01*
X91448077Y-39466310D01*
X91530484Y-39665259D01*
X91783195Y-39747200D01*
X92657395Y-38873000D01*
X92643253Y-38858858D01*
X92822858Y-38679253D01*
X92837000Y-38693395D01*
X92851143Y-38679253D01*
X93030748Y-38858858D01*
X93016605Y-38873000D01*
X93890805Y-39747200D01*
X94143516Y-39665259D01*
X94347248Y-39104970D01*
X94321058Y-38509365D01*
X94169719Y-38144000D01*
X109117356Y-38144000D01*
X115280991Y-44307635D01*
X114212000Y-44307635D01*
X114053763Y-44337409D01*
X113908433Y-44430927D01*
X113810936Y-44573619D01*
X113776635Y-44743000D01*
X113776635Y-46443000D01*
X113806409Y-46601237D01*
X113899927Y-46746567D01*
X114042619Y-46844064D01*
X114212000Y-46878365D01*
X114435000Y-46878365D01*
X114435000Y-56128288D01*
X112605422Y-57957866D01*
X112364725Y-58057320D01*
X112160039Y-58261650D01*
X112049126Y-58528756D01*
X112048874Y-58817975D01*
X112159320Y-59085275D01*
X112363650Y-59289961D01*
X112630756Y-59400874D01*
X112919975Y-59401126D01*
X113187275Y-59290680D01*
X113252068Y-59226000D01*
X118643354Y-59226000D01*
X118652953Y-59235599D01*
X118652874Y-59325975D01*
X118763320Y-59593275D01*
X118967650Y-59797961D01*
X119234756Y-59908874D01*
X119523975Y-59909126D01*
X119791275Y-59798680D01*
X119995961Y-59594350D01*
X120106874Y-59327244D01*
X120107126Y-59038025D01*
X119996680Y-58770725D01*
X119792350Y-58566039D01*
X119525244Y-58455126D01*
X119433692Y-58455046D01*
X119262323Y-58283677D01*
X119083242Y-58164018D01*
X118872000Y-58122000D01*
X114214712Y-58122000D01*
X115505356Y-56831356D01*
X115534831Y-56787244D01*
X115641272Y-56627943D01*
X115689000Y-56388000D01*
X115689000Y-46878365D01*
X115912000Y-46878365D01*
X116070237Y-46848591D01*
X116215567Y-46755073D01*
X116227281Y-46737929D01*
X116823676Y-47334324D01*
X117002757Y-47453983D01*
X117213999Y-47496001D01*
X117427509Y-47496001D01*
X117493320Y-47655275D01*
X117697650Y-47859961D01*
X117964756Y-47970874D01*
X118253975Y-47971126D01*
X118521275Y-47860680D01*
X118725961Y-47656350D01*
X118836874Y-47389244D01*
X118837126Y-47100025D01*
X118726680Y-46832725D01*
X118522350Y-46628039D01*
X118412830Y-46582562D01*
X118504975Y-46520993D01*
X118781794Y-46106705D01*
X118872000Y-45653209D01*
X118962206Y-46106705D01*
X119239025Y-46520993D01*
X119590000Y-46755508D01*
X119590000Y-49772922D01*
X119536024Y-49772875D01*
X119268724Y-49883321D01*
X119064038Y-50087651D01*
X118953125Y-50354757D01*
X118952873Y-50643976D01*
X119063319Y-50911276D01*
X119267649Y-51115962D01*
X119534755Y-51226875D01*
X119823974Y-51227127D01*
X120091274Y-51116681D01*
X120295960Y-50912351D01*
X120406873Y-50645245D01*
X120406953Y-50553693D01*
X120532323Y-50428323D01*
X120651982Y-50249242D01*
X120694000Y-50038000D01*
X120694000Y-46755508D01*
X121044975Y-46520993D01*
X121317309Y-46113417D01*
X121486817Y-46474358D01*
X121915076Y-46864645D01*
X122325110Y-47034476D01*
X122555000Y-46913155D01*
X122555000Y-45720000D01*
X122809000Y-45720000D01*
X122809000Y-46913155D01*
X123038890Y-47034476D01*
X123448924Y-46864645D01*
X123877183Y-46474358D01*
X124123486Y-45949892D01*
X124002819Y-45720000D01*
X122809000Y-45720000D01*
X122555000Y-45720000D01*
X122535000Y-45720000D01*
X122535000Y-45466000D01*
X122555000Y-45466000D01*
X122555000Y-44272845D01*
X122809000Y-44272845D01*
X122809000Y-45466000D01*
X124002819Y-45466000D01*
X124123486Y-45236108D01*
X123877183Y-44711642D01*
X123448924Y-44321355D01*
X123038890Y-44151524D01*
X122809000Y-44272845D01*
X122555000Y-44272845D01*
X122325110Y-44151524D01*
X121915076Y-44321355D01*
X121486817Y-44711642D01*
X121317309Y-45072583D01*
X121044975Y-44665007D01*
X120630687Y-44388188D01*
X120142000Y-44290982D01*
X119721688Y-44374587D01*
X119741961Y-44354350D01*
X119852874Y-44087244D01*
X119853126Y-43798025D01*
X119742680Y-43530725D01*
X119638137Y-43426000D01*
X129026288Y-43426000D01*
X131453000Y-45852712D01*
X131453000Y-59166635D01*
X131230000Y-59166635D01*
X131071763Y-59196409D01*
X130926433Y-59289927D01*
X130828936Y-59432619D01*
X130794635Y-59602000D01*
X130794635Y-59825000D01*
X130175000Y-59825000D01*
X129935057Y-59872728D01*
X129773325Y-59980794D01*
X129731644Y-60008644D01*
X128588644Y-61151644D01*
X128452728Y-61355057D01*
X128405000Y-61595000D01*
X128405000Y-86608288D01*
X126613288Y-88400000D01*
X101605712Y-88400000D01*
X90670000Y-77464288D01*
X90670000Y-68326000D01*
X90666371Y-68307756D01*
X90622273Y-68086058D01*
X90486356Y-67882644D01*
X88581356Y-65977644D01*
X88456115Y-65893961D01*
X88377943Y-65841728D01*
X88138000Y-65794000D01*
X83454365Y-65794000D01*
X83454365Y-65571000D01*
X83424591Y-65412763D01*
X83331073Y-65267433D01*
X83188381Y-65169936D01*
X83019000Y-65135635D01*
X82923764Y-65135635D01*
X83050358Y-65076183D01*
X83440645Y-64647924D01*
X83610476Y-64237890D01*
X83489155Y-64008000D01*
X82296000Y-64008000D01*
X82296000Y-64028000D01*
X82042000Y-64028000D01*
X82042000Y-64008000D01*
X80848845Y-64008000D01*
X80727524Y-64237890D01*
X80897355Y-64647924D01*
X81287642Y-65076183D01*
X81414236Y-65135635D01*
X81319000Y-65135635D01*
X81160763Y-65165409D01*
X81015433Y-65258927D01*
X80917936Y-65401619D01*
X80883635Y-65571000D01*
X80883635Y-67271000D01*
X80913409Y-67429237D01*
X81006927Y-67574567D01*
X81149619Y-67672064D01*
X81319000Y-67706365D01*
X83019000Y-67706365D01*
X83177237Y-67676591D01*
X83322567Y-67583073D01*
X83420064Y-67440381D01*
X83454365Y-67271000D01*
X83454365Y-67048000D01*
X87878288Y-67048000D01*
X89416000Y-68585712D01*
X89416000Y-77724000D01*
X89463728Y-77963943D01*
X89545258Y-78085961D01*
X89599644Y-78167356D01*
X100902644Y-89470356D01*
X101106058Y-89606273D01*
X101346000Y-89654000D01*
X126873000Y-89654000D01*
X127112943Y-89606272D01*
X127316356Y-89470356D01*
X129475356Y-87311356D01*
X129611272Y-87107943D01*
X129640726Y-86959867D01*
X134004688Y-86959867D01*
X134278448Y-87622417D01*
X134784916Y-88129770D01*
X135446988Y-88404686D01*
X136163867Y-88405312D01*
X136826417Y-88131552D01*
X137333770Y-87625084D01*
X137608686Y-86963012D01*
X137609312Y-86246133D01*
X137335552Y-85583583D01*
X136829084Y-85076230D01*
X136167012Y-84801314D01*
X135450133Y-84800688D01*
X134787583Y-85074448D01*
X134280230Y-85580916D01*
X134005314Y-86242988D01*
X134004688Y-86959867D01*
X129640726Y-86959867D01*
X129659000Y-86868000D01*
X129659000Y-68428890D01*
X130638524Y-68428890D01*
X130808355Y-68838924D01*
X131198642Y-69267183D01*
X131723108Y-69513486D01*
X131953000Y-69392819D01*
X131953000Y-68199000D01*
X132207000Y-68199000D01*
X132207000Y-69392819D01*
X132436892Y-69513486D01*
X132961358Y-69267183D01*
X133351645Y-68838924D01*
X133521476Y-68428890D01*
X133400155Y-68199000D01*
X132207000Y-68199000D01*
X131953000Y-68199000D01*
X130759845Y-68199000D01*
X130638524Y-68428890D01*
X129659000Y-68428890D01*
X129659000Y-61854712D01*
X130434712Y-61079000D01*
X130794635Y-61079000D01*
X130794635Y-61302000D01*
X130824409Y-61460237D01*
X130917927Y-61605567D01*
X131060619Y-61703064D01*
X131230000Y-61737365D01*
X131942546Y-61737365D01*
X131566295Y-61812206D01*
X131152007Y-62089025D01*
X130875188Y-62503313D01*
X130777982Y-62992000D01*
X130875188Y-63480687D01*
X131152007Y-63894975D01*
X131566295Y-64171794D01*
X132019791Y-64262000D01*
X131566295Y-64352206D01*
X131152007Y-64629025D01*
X130875188Y-65043313D01*
X130777982Y-65532000D01*
X130875188Y-66020687D01*
X131152007Y-66434975D01*
X131559583Y-66707309D01*
X131198642Y-66876817D01*
X130808355Y-67305076D01*
X130638524Y-67715110D01*
X130759845Y-67945000D01*
X131953000Y-67945000D01*
X131953000Y-67925000D01*
X132207000Y-67925000D01*
X132207000Y-67945000D01*
X133400155Y-67945000D01*
X133521476Y-67715110D01*
X133351645Y-67305076D01*
X132961358Y-66876817D01*
X132600417Y-66707309D01*
X133007993Y-66434975D01*
X133284812Y-66020687D01*
X133382018Y-65532000D01*
X133284812Y-65043313D01*
X133007993Y-64629025D01*
X132593705Y-64352206D01*
X132140209Y-64262000D01*
X132593705Y-64171794D01*
X133007993Y-63894975D01*
X133284812Y-63480687D01*
X133382018Y-62992000D01*
X133284812Y-62503313D01*
X133007993Y-62089025D01*
X132593705Y-61812206D01*
X132217454Y-61737365D01*
X132930000Y-61737365D01*
X133088237Y-61707591D01*
X133233567Y-61614073D01*
X133331064Y-61471381D01*
X133365365Y-61302000D01*
X133365365Y-59602000D01*
X133335591Y-59443763D01*
X133242073Y-59298433D01*
X133099381Y-59200936D01*
X132930000Y-59166635D01*
X132707000Y-59166635D01*
X132707000Y-45593000D01*
X132679952Y-45457021D01*
X132659273Y-45353058D01*
X132523356Y-45149644D01*
X129729356Y-42355644D01*
X129719528Y-42349077D01*
X129525943Y-42219728D01*
X129286000Y-42172000D01*
X117353712Y-42172000D01*
X111770302Y-36588590D01*
X119486177Y-36588590D01*
X119682245Y-37063111D01*
X120044980Y-37426479D01*
X120470551Y-37603192D01*
X120046889Y-37778245D01*
X119683521Y-38140980D01*
X119486625Y-38615158D01*
X119486177Y-39128590D01*
X119682245Y-39603111D01*
X120044980Y-39966479D01*
X120519158Y-40163375D01*
X121032590Y-40163823D01*
X121507111Y-39967755D01*
X121870479Y-39605020D01*
X122047192Y-39179449D01*
X122222245Y-39603111D01*
X122584980Y-39966479D01*
X123059158Y-40163375D01*
X123572590Y-40163823D01*
X124047111Y-39967755D01*
X124410479Y-39605020D01*
X124587192Y-39179449D01*
X124762245Y-39603111D01*
X125124980Y-39966479D01*
X125599158Y-40163375D01*
X126112590Y-40163823D01*
X126587111Y-39967755D01*
X126950479Y-39605020D01*
X127127192Y-39179449D01*
X127302245Y-39603111D01*
X127664980Y-39966479D01*
X128139158Y-40163375D01*
X128652590Y-40163823D01*
X129127111Y-39967755D01*
X129168132Y-39926805D01*
X130062800Y-39926805D01*
X130144741Y-40179516D01*
X130705030Y-40383248D01*
X131300635Y-40357058D01*
X131729259Y-40179516D01*
X131811200Y-39926805D01*
X130937000Y-39052605D01*
X130062800Y-39926805D01*
X129168132Y-39926805D01*
X129490479Y-39605020D01*
X129548077Y-39466310D01*
X129630484Y-39665259D01*
X129883195Y-39747200D01*
X130757395Y-38873000D01*
X131116605Y-38873000D01*
X131990805Y-39747200D01*
X132243516Y-39665259D01*
X132447248Y-39104970D01*
X132421058Y-38509365D01*
X132243516Y-38080741D01*
X131990805Y-37998800D01*
X131116605Y-38873000D01*
X130757395Y-38873000D01*
X129883195Y-37998800D01*
X129630484Y-38080741D01*
X129553526Y-38292386D01*
X129491755Y-38142889D01*
X129129020Y-37779521D01*
X128703449Y-37602808D01*
X129127111Y-37427755D01*
X129490479Y-37065020D01*
X129667192Y-36639449D01*
X129842245Y-37063111D01*
X130204980Y-37426479D01*
X130343690Y-37484077D01*
X130144741Y-37566484D01*
X130062800Y-37819195D01*
X130937000Y-38693395D01*
X131670528Y-37959867D01*
X134004688Y-37959867D01*
X134278448Y-38622417D01*
X134784916Y-39129770D01*
X135446988Y-39404686D01*
X136163867Y-39405312D01*
X136826417Y-39131552D01*
X137333770Y-38625084D01*
X137608686Y-37963012D01*
X137609312Y-37246133D01*
X137335552Y-36583583D01*
X136829084Y-36076230D01*
X136167012Y-35801314D01*
X135450133Y-35800688D01*
X134787583Y-36074448D01*
X134280230Y-36580916D01*
X134005314Y-37242988D01*
X134004688Y-37959867D01*
X131670528Y-37959867D01*
X131811200Y-37819195D01*
X131729259Y-37566484D01*
X131517614Y-37489526D01*
X131667111Y-37427755D01*
X132030479Y-37065020D01*
X132227375Y-36590842D01*
X132227823Y-36077410D01*
X132031755Y-35602889D01*
X131669020Y-35239521D01*
X131194842Y-35042625D01*
X130681410Y-35042177D01*
X130206889Y-35238245D01*
X129843521Y-35600980D01*
X129666808Y-36026551D01*
X129491755Y-35602889D01*
X129129020Y-35239521D01*
X128654842Y-35042625D01*
X128141410Y-35042177D01*
X127666889Y-35238245D01*
X127303521Y-35600980D01*
X127126808Y-36026551D01*
X126951755Y-35602889D01*
X126589020Y-35239521D01*
X126114842Y-35042625D01*
X125601410Y-35042177D01*
X125126889Y-35238245D01*
X124763521Y-35600980D01*
X124705923Y-35739690D01*
X124623516Y-35540741D01*
X124370805Y-35458800D01*
X123496605Y-36333000D01*
X124370805Y-37207200D01*
X124623516Y-37125259D01*
X124700474Y-36913614D01*
X124762245Y-37063111D01*
X125124980Y-37426479D01*
X125550551Y-37603192D01*
X125126889Y-37778245D01*
X124763521Y-38140980D01*
X124586808Y-38566551D01*
X124411755Y-38142889D01*
X124049020Y-37779521D01*
X123910310Y-37721923D01*
X124109259Y-37639516D01*
X124191200Y-37386805D01*
X123317000Y-36512605D01*
X122442800Y-37386805D01*
X122524741Y-37639516D01*
X122736386Y-37716474D01*
X122586889Y-37778245D01*
X122223521Y-38140980D01*
X122046808Y-38566551D01*
X121871755Y-38142889D01*
X121509020Y-37779521D01*
X121083449Y-37602808D01*
X121507111Y-37427755D01*
X121870479Y-37065020D01*
X121928077Y-36926310D01*
X122010484Y-37125259D01*
X122263195Y-37207200D01*
X123137395Y-36333000D01*
X122263195Y-35458800D01*
X122010484Y-35540741D01*
X121933526Y-35752386D01*
X121871755Y-35602889D01*
X121548625Y-35279195D01*
X122442800Y-35279195D01*
X123317000Y-36153395D01*
X124191200Y-35279195D01*
X124109259Y-35026484D01*
X123548970Y-34822752D01*
X122953365Y-34848942D01*
X122524741Y-35026484D01*
X122442800Y-35279195D01*
X121548625Y-35279195D01*
X121509020Y-35239521D01*
X121034842Y-35042625D01*
X120521410Y-35042177D01*
X120046889Y-35238245D01*
X119683521Y-35600980D01*
X119486625Y-36075158D01*
X119486177Y-36588590D01*
X111770302Y-36588590D01*
X110806356Y-35624644D01*
X110697636Y-35552000D01*
X110602943Y-35488728D01*
X110363000Y-35441000D01*
X94874712Y-35441000D01*
X93915356Y-34481644D01*
X93711943Y-34345728D01*
X93472000Y-34298000D01*
X85725000Y-34298000D01*
X85485057Y-34345728D01*
X85281644Y-34481644D01*
X84773644Y-34989644D01*
X84653546Y-35169384D01*
X84486889Y-35238245D01*
X84123521Y-35600980D01*
X84079913Y-35706000D01*
X83814360Y-35706000D01*
X83771755Y-35602889D01*
X83409020Y-35239521D01*
X82934842Y-35042625D01*
X82421410Y-35042177D01*
X81946889Y-35238245D01*
X81583521Y-35600980D01*
X81386625Y-36075158D01*
X81386177Y-36588590D01*
X81582245Y-37063111D01*
X81944980Y-37426479D01*
X82300334Y-37574035D01*
X81813400Y-37574035D01*
X81655163Y-37603809D01*
X81509833Y-37697327D01*
X81412336Y-37840019D01*
X81378035Y-38009400D01*
X81378035Y-39736600D01*
X81407809Y-39894837D01*
X81501327Y-40040167D01*
X81644019Y-40137664D01*
X81813400Y-40171965D01*
X83540600Y-40171965D01*
X83698837Y-40142191D01*
X83844167Y-40048673D01*
X83941664Y-39905981D01*
X83975965Y-39736600D01*
X83975965Y-39249086D01*
X84122245Y-39603111D01*
X84484980Y-39966479D01*
X84665000Y-40041230D01*
X84665000Y-55524354D01*
X82587154Y-57602200D01*
X82194018Y-57524000D01*
X82143982Y-57524000D01*
X81655295Y-57621206D01*
X81241007Y-57898025D01*
X80964188Y-58312313D01*
X80866982Y-58801000D01*
X80964188Y-59289687D01*
X81241007Y-59703975D01*
X81655295Y-59980794D01*
X82108791Y-60071000D01*
X81655295Y-60161206D01*
X81241007Y-60438025D01*
X80964188Y-60852313D01*
X80866982Y-61341000D01*
X80964188Y-61829687D01*
X81241007Y-62243975D01*
X81648583Y-62516309D01*
X81287642Y-62685817D01*
X80897355Y-63114076D01*
X80727524Y-63524110D01*
X74422000Y-63524110D01*
X74422000Y-50399268D01*
X76272337Y-50399268D01*
X76383241Y-50676499D01*
X77029193Y-50919723D01*
X77719053Y-50897236D01*
X78251959Y-50676499D01*
X78362863Y-50399268D01*
X81352337Y-50399268D01*
X81463241Y-50676499D01*
X82109193Y-50919723D01*
X82799053Y-50897236D01*
X83331959Y-50676499D01*
X83442863Y-50399268D01*
X82397600Y-49354005D01*
X81352337Y-50399268D01*
X78362863Y-50399268D01*
X77317600Y-49354005D01*
X76272337Y-50399268D01*
X74422000Y-50399268D01*
X74422000Y-48885993D01*
X75572277Y-48885993D01*
X75594764Y-49575853D01*
X75815501Y-50108759D01*
X76092732Y-50219663D01*
X77137995Y-49174400D01*
X77497205Y-49174400D01*
X78542468Y-50219663D01*
X78819699Y-50108759D01*
X79062923Y-49462807D01*
X79044121Y-48885993D01*
X80652277Y-48885993D01*
X80674764Y-49575853D01*
X80895501Y-50108759D01*
X81172732Y-50219663D01*
X82217995Y-49174400D01*
X82577205Y-49174400D01*
X83622468Y-50219663D01*
X83899699Y-50108759D01*
X84142923Y-49462807D01*
X84120436Y-48772947D01*
X83899699Y-48240041D01*
X83622468Y-48129137D01*
X82577205Y-49174400D01*
X82217995Y-49174400D01*
X81172732Y-48129137D01*
X80895501Y-48240041D01*
X80652277Y-48885993D01*
X79044121Y-48885993D01*
X79040436Y-48772947D01*
X78819699Y-48240041D01*
X78542468Y-48129137D01*
X77497205Y-49174400D01*
X77137995Y-49174400D01*
X76092732Y-48129137D01*
X75815501Y-48240041D01*
X75572277Y-48885993D01*
X74422000Y-48885993D01*
X74422000Y-47949532D01*
X76272337Y-47949532D01*
X77317600Y-48994795D01*
X78362863Y-47949532D01*
X78251959Y-47672301D01*
X77606007Y-47429077D01*
X76916147Y-47451564D01*
X76383241Y-47672301D01*
X76272337Y-47949532D01*
X74422000Y-47949532D01*
X74422000Y-46917003D01*
X78430352Y-46917003D01*
X78647143Y-47441675D01*
X79048214Y-47843447D01*
X79572507Y-48061152D01*
X80140203Y-48061648D01*
X80411543Y-47949532D01*
X81352337Y-47949532D01*
X82397600Y-48994795D01*
X83442863Y-47949532D01*
X83331959Y-47672301D01*
X82686007Y-47429077D01*
X81996147Y-47451564D01*
X81463241Y-47672301D01*
X81352337Y-47949532D01*
X80411543Y-47949532D01*
X80664875Y-47844857D01*
X81066647Y-47443786D01*
X81284352Y-46919493D01*
X81284848Y-46351797D01*
X81068057Y-45827125D01*
X80666986Y-45425353D01*
X80411505Y-45319268D01*
X81352337Y-45319268D01*
X81463241Y-45596499D01*
X82109193Y-45839723D01*
X82799053Y-45817236D01*
X83331959Y-45596499D01*
X83442863Y-45319268D01*
X82397600Y-44274005D01*
X81352337Y-45319268D01*
X80411505Y-45319268D01*
X80142693Y-45207648D01*
X79574997Y-45207152D01*
X79050325Y-45423943D01*
X78648553Y-45825014D01*
X78430848Y-46349307D01*
X78430352Y-46917003D01*
X74422000Y-46917003D01*
X74422000Y-45319268D01*
X76272337Y-45319268D01*
X76383241Y-45596499D01*
X77029193Y-45839723D01*
X77719053Y-45817236D01*
X78251959Y-45596499D01*
X78362863Y-45319268D01*
X77317600Y-44274005D01*
X76272337Y-45319268D01*
X74422000Y-45319268D01*
X74422000Y-43805993D01*
X75572277Y-43805993D01*
X75594764Y-44495853D01*
X75815501Y-45028759D01*
X76092732Y-45139663D01*
X77137995Y-44094400D01*
X77497205Y-44094400D01*
X78542468Y-45139663D01*
X78819699Y-45028759D01*
X79062923Y-44382807D01*
X79044121Y-43805993D01*
X80652277Y-43805993D01*
X80674764Y-44495853D01*
X80895501Y-45028759D01*
X81172732Y-45139663D01*
X82217995Y-44094400D01*
X82577205Y-44094400D01*
X83622468Y-45139663D01*
X83899699Y-45028759D01*
X84142923Y-44382807D01*
X84120436Y-43692947D01*
X83899699Y-43160041D01*
X83622468Y-43049137D01*
X82577205Y-44094400D01*
X82217995Y-44094400D01*
X81172732Y-43049137D01*
X80895501Y-43160041D01*
X80652277Y-43805993D01*
X79044121Y-43805993D01*
X79040436Y-43692947D01*
X78819699Y-43160041D01*
X78542468Y-43049137D01*
X77497205Y-44094400D01*
X77137995Y-44094400D01*
X76092732Y-43049137D01*
X75815501Y-43160041D01*
X75572277Y-43805993D01*
X74422000Y-43805993D01*
X74422000Y-42869532D01*
X76272337Y-42869532D01*
X77317600Y-43914795D01*
X78362863Y-42869532D01*
X81352337Y-42869532D01*
X82397600Y-43914795D01*
X83442863Y-42869532D01*
X83331959Y-42592301D01*
X82686007Y-42349077D01*
X81996147Y-42371564D01*
X81463241Y-42592301D01*
X81352337Y-42869532D01*
X78362863Y-42869532D01*
X78251959Y-42592301D01*
X77606007Y-42349077D01*
X76916147Y-42371564D01*
X76383241Y-42592301D01*
X76272337Y-42869532D01*
X74422000Y-42869532D01*
X74422000Y-37959867D01*
X76004688Y-37959867D01*
X76278448Y-38622417D01*
X76784916Y-39129770D01*
X77446988Y-39404686D01*
X78163867Y-39405312D01*
X78826417Y-39131552D01*
X79333770Y-38625084D01*
X79608686Y-37963012D01*
X79609312Y-37246133D01*
X79335552Y-36583583D01*
X78829084Y-36076230D01*
X78167012Y-35801314D01*
X77450133Y-35800688D01*
X76787583Y-36074448D01*
X76280230Y-36580916D01*
X76005314Y-37242988D01*
X76004688Y-37959867D01*
X74422000Y-37959867D01*
X74422000Y-33909000D01*
X139319000Y-33909000D01*
X139319000Y-90424000D01*
G36*
X87950748Y-36318858D02*
X87936605Y-36333000D01*
X88810805Y-37207200D01*
X89063516Y-37125259D01*
X89140474Y-36913614D01*
X89202245Y-37063111D01*
X89564980Y-37426479D01*
X89990551Y-37603192D01*
X89566889Y-37778245D01*
X89203521Y-38140980D01*
X89026808Y-38566551D01*
X88851755Y-38142889D01*
X88489020Y-37779521D01*
X88350310Y-37721923D01*
X88549259Y-37639516D01*
X88631200Y-37386805D01*
X87757000Y-36512605D01*
X86882800Y-37386805D01*
X86964741Y-37639516D01*
X87176386Y-37716474D01*
X87026889Y-37778245D01*
X86663521Y-38140980D01*
X86486808Y-38566551D01*
X86311755Y-38142889D01*
X85949020Y-37779521D01*
X85523449Y-37602808D01*
X85947111Y-37427755D01*
X86310479Y-37065020D01*
X86368077Y-36926310D01*
X86450484Y-37125259D01*
X86703195Y-37207200D01*
X87577395Y-36333000D01*
X87563253Y-36318858D01*
X87742858Y-36139253D01*
X87757000Y-36153395D01*
X87771143Y-36139253D01*
X87950748Y-36318858D01*
X87950748Y-36318858D01*
G37*
X87950748Y-36318858D02*
X87936605Y-36333000D01*
X88810805Y-37207200D01*
X89063516Y-37125259D01*
X89140474Y-36913614D01*
X89202245Y-37063111D01*
X89564980Y-37426479D01*
X89990551Y-37603192D01*
X89566889Y-37778245D01*
X89203521Y-38140980D01*
X89026808Y-38566551D01*
X88851755Y-38142889D01*
X88489020Y-37779521D01*
X88350310Y-37721923D01*
X88549259Y-37639516D01*
X88631200Y-37386805D01*
X87757000Y-36512605D01*
X86882800Y-37386805D01*
X86964741Y-37639516D01*
X87176386Y-37716474D01*
X87026889Y-37778245D01*
X86663521Y-38140980D01*
X86486808Y-38566551D01*
X86311755Y-38142889D01*
X85949020Y-37779521D01*
X85523449Y-37602808D01*
X85947111Y-37427755D01*
X86310479Y-37065020D01*
X86368077Y-36926310D01*
X86450484Y-37125259D01*
X86703195Y-37207200D01*
X87577395Y-36333000D01*
X87563253Y-36318858D01*
X87742858Y-36139253D01*
X87757000Y-36153395D01*
X87771143Y-36139253D01*
X87950748Y-36318858D01*
G36*
X106382000Y-58736015D02*
X106317244Y-58709126D01*
X106028025Y-58708874D01*
X105760725Y-58819320D01*
X105556039Y-59023650D01*
X105445126Y-59290756D01*
X105445010Y-59423395D01*
X105408018Y-59478758D01*
X105394638Y-59546025D01*
X105366000Y-59690000D01*
X105366000Y-70295354D01*
X102835047Y-67764401D01*
X102835126Y-67674025D01*
X102724680Y-67406725D01*
X102520350Y-67202039D01*
X102253244Y-67091126D01*
X102161692Y-67091046D01*
X101482323Y-66411677D01*
X101303242Y-66292018D01*
X101092000Y-66250000D01*
X100120000Y-66250000D01*
X100120000Y-60426646D01*
X100304646Y-60242000D01*
X102870000Y-60242000D01*
X103081242Y-60199982D01*
X103260323Y-60080323D01*
X103905322Y-59435324D01*
X103988405Y-59310982D01*
X104024981Y-59256242D01*
X104066999Y-59045001D01*
X104066999Y-57622937D01*
X104283975Y-57623126D01*
X104551275Y-57512680D01*
X104755961Y-57308350D01*
X104866874Y-57041244D01*
X104867126Y-56752025D01*
X104756680Y-56484725D01*
X104692000Y-56419932D01*
X104692000Y-54324200D01*
X104755961Y-54260350D01*
X104866874Y-53993244D01*
X104867126Y-53704025D01*
X104756680Y-53436725D01*
X104660134Y-53340011D01*
X104755961Y-53244350D01*
X104866874Y-52977244D01*
X104867126Y-52688025D01*
X104756680Y-52420725D01*
X104692000Y-52355932D01*
X104692000Y-48633000D01*
X105405235Y-48633000D01*
X105645756Y-48732874D01*
X105934975Y-48733126D01*
X106202275Y-48622680D01*
X106382000Y-48443268D01*
X106382000Y-58736015D01*
X106382000Y-58736015D01*
G37*
X106382000Y-58736015D02*
X106317244Y-58709126D01*
X106028025Y-58708874D01*
X105760725Y-58819320D01*
X105556039Y-59023650D01*
X105445126Y-59290756D01*
X105445010Y-59423395D01*
X105408018Y-59478758D01*
X105394638Y-59546025D01*
X105366000Y-59690000D01*
X105366000Y-70295354D01*
X102835047Y-67764401D01*
X102835126Y-67674025D01*
X102724680Y-67406725D01*
X102520350Y-67202039D01*
X102253244Y-67091126D01*
X102161692Y-67091046D01*
X101482323Y-66411677D01*
X101303242Y-66292018D01*
X101092000Y-66250000D01*
X100120000Y-66250000D01*
X100120000Y-60426646D01*
X100304646Y-60242000D01*
X102870000Y-60242000D01*
X103081242Y-60199982D01*
X103260323Y-60080323D01*
X103905322Y-59435324D01*
X103988405Y-59310982D01*
X104024981Y-59256242D01*
X104066999Y-59045001D01*
X104066999Y-57622937D01*
X104283975Y-57623126D01*
X104551275Y-57512680D01*
X104755961Y-57308350D01*
X104866874Y-57041244D01*
X104867126Y-56752025D01*
X104756680Y-56484725D01*
X104692000Y-56419932D01*
X104692000Y-54324200D01*
X104755961Y-54260350D01*
X104866874Y-53993244D01*
X104867126Y-53704025D01*
X104756680Y-53436725D01*
X104660134Y-53340011D01*
X104755961Y-53244350D01*
X104866874Y-52977244D01*
X104867126Y-52688025D01*
X104756680Y-52420725D01*
X104692000Y-52355932D01*
X104692000Y-48633000D01*
X105405235Y-48633000D01*
X105645756Y-48732874D01*
X105934975Y-48733126D01*
X106202275Y-48622680D01*
X106382000Y-48443268D01*
X106382000Y-58736015D01*
M02*
