M48
;DRILL file {KiCad 4.0.7} date 01/27/18 12:09:37
;FORMAT={-:-/ absolute / inch / decimal}
FMAT,2
INCH,TZ
T1C0.012
T2C0.016
T3C0.039
T4C0.040
T5C0.059
T6C0.067
%
G90
G05
M72
T1
X3.01Y-2.85
X3.05Y-2.055
X3.22Y-2.145
X3.245Y-1.835
X3.285Y-2.745
X3.31Y-1.985
X3.315Y-1.725
X3.315Y-1.85
X3.325Y-2.8
X3.37Y-2.745
X3.375Y-3.085
X3.38Y-2.49
X3.38Y-3.18
X3.415Y-2.695
X3.43Y-2.355
X3.45Y-1.825
X3.475Y-2.105
X3.48Y-1.905
X3.48Y-1.96
X3.53Y-3.29
X3.645Y-1.715
X3.68Y-1.995
X3.68Y-2.43
X3.8418Y-2.021
X3.8418Y-2.0703
X3.8418Y-2.1195
X3.8418Y-2.1687
X3.891Y-2.021
X3.891Y-2.0703
X3.891Y-2.1195
X3.891Y-2.1687
X3.9Y-2.9
X3.9Y-2.95
X3.9Y-3.
X3.94Y-2.29
X3.9403Y-2.021
X3.9403Y-2.0703
X3.9403Y-2.1195
X3.9403Y-2.1687
X3.95Y-2.9
X3.95Y-2.95
X3.95Y-3.
X3.98Y-3.215
X3.9895Y-2.021
X3.9895Y-2.0703
X3.9895Y-2.1195
X3.9895Y-2.1687
X4.Y-1.605
X4.Y-2.9
X4.Y-2.95
X4.Y-3.
X4.06Y-1.93
X4.06Y-2.42
X4.13Y-2.29
X4.15Y-1.715
X4.165Y-3.24
X4.26Y-1.59
X4.26Y-2.07
X4.285Y-1.94
X4.4Y-1.705
X4.41Y-2.39
X4.41Y-2.46
X4.47Y-1.88
X4.52Y-2.28
X4.57Y-1.41
X4.59Y-2.1
X4.59Y-2.15
X4.6Y-2.02
X4.655Y-2.495
X4.75Y-2.205
X4.765Y-1.995
X4.875Y-3.055
X4.88Y-2.74
X4.91Y-1.8
X4.92Y-1.61
X4.97Y-2.045
X5.Y-2.28
X5.05Y-2.02
X5.07Y-1.61
X5.25Y-1.6
X5.26Y-3.06
X5.34Y-2.325
T2
X3.52Y-1.94
X3.6Y-2.59
X3.64Y-2.84
X3.69Y-2.35
X3.69Y-3.05
X3.77Y-1.71
X3.77Y-2.695
X3.82Y-1.91
X3.9Y-1.9
X3.92Y-2.63
X3.985Y-1.89
X4.02Y-2.67
X4.1Y-2.08
X4.1Y-2.12
X4.1Y-2.24
X4.165Y-1.89
X4.18Y-1.8
X4.18Y-2.34
X4.2Y-2.9
X4.21Y-2.57
X4.27Y-3.1
X4.28Y-2.11
X4.325Y-2.175
X4.326Y-2.117
X4.34Y-2.97
X4.35Y-1.84
X4.36Y-2.12
X4.375Y-3.015
X4.405Y-2.945
X4.44Y-2.14
X4.44Y-2.31
X4.46Y-3.01
X4.59Y-2.21
X4.63Y-2.67
X4.65Y-1.86
X4.66Y-2.71
X4.69Y-1.73
X4.69Y-2.21
X4.7Y-2.33
X4.7118Y-1.9882
X4.79Y-2.15
X4.9Y-1.96
X4.9Y-2.17
X4.91Y-2.23
X4.97Y-1.82
X5.02Y-1.82
X5.07Y-1.76
T3
X3.235Y-2.315
X3.235Y-2.415
X3.235Y-2.515
X3.235Y-2.615
X4.53Y-1.795
X4.63Y-1.795
X4.73Y-1.795
X4.83Y-1.795
X5.2Y-2.38
X5.2Y-2.48
X5.2Y-2.58
X5.2Y-2.68
T4
X3.255Y-1.4304
X3.255Y-1.5304
X3.355Y-1.4304
X3.355Y-1.5304
X3.455Y-1.4304
X3.455Y-1.5304
X3.555Y-1.4304
X3.555Y-1.5304
X3.655Y-1.4304
X3.655Y-1.5304
X4.755Y-1.4304
X4.755Y-1.5304
X4.855Y-1.4304
X4.855Y-1.5304
X4.955Y-1.4304
X4.955Y-1.5304
X5.055Y-1.4304
X5.055Y-1.5304
X5.155Y-1.4304
X5.155Y-1.5304
T5
X3.12Y-3.115
X3.144Y-1.836
T6
X3.02Y-3.015
X3.02Y-3.215
X3.044Y-1.736
X3.044Y-1.936
X3.22Y-3.015
X3.22Y-3.215
X3.244Y-1.736
X3.244Y-1.936
T0
M30
